<svg width="248" height="64" viewBox="0 0 248 64" fill="none" xmlns="http://www.w3.org/2000/svg">
<path d="M247.419 23.9453V31.9213H239.438V23.9453H247.419Z" fill="#000000" fill-opacity="0.85"/>
<path d="M247.419 15.9625V23.9452H239.438V15.9625H247.419Z" fill="#000000" fill-opacity="0.85"/>
<path d="M239.437 31.9213V39.9039H231.456V31.9213H239.437Z" fill="#000000" fill-opacity="0.85"/>
<path d="M239.437 23.9453V31.9213H231.456V23.9453H239.437Z" fill="#000000" fill-opacity="0.85"/>
<path d="M239.437 15.9625V23.9452H231.456V15.9625H239.437Z" fill="#000000" fill-opacity="0.85"/>
<path d="M239.437 7.98121V15.9625H231.456V7.98121H239.437Z" fill="#000000" fill-opacity="0.85"/>
<path d="M231.456 39.9039V47.8853H223.473V39.9039H231.456Z" fill="#000000" fill-opacity="0.85"/>
<path d="M231.456 31.9213V39.9039H223.473V31.9213H231.456Z" fill="#000000" fill-opacity="0.85"/>
<path d="M231.456 23.9453V31.9213H223.473V23.9453H231.456Z" fill="#000000" fill-opacity="0.85"/>
<path d="M231.456 15.9625V23.9452H223.473V15.9625H231.456Z" fill="#000000" fill-opacity="0.85"/>
<path d="M231.456 7.98121V15.9625H223.473V7.98121H231.456Z" fill="white"/>
<path d="M223.474 47.8852V55.8666H215.492V47.8852H223.474Z" fill="#000000" fill-opacity="0.85"/>
<path d="M223.474 39.9039V47.8853H215.492V39.9039H223.474Z" fill="#000000" fill-opacity="0.85"/>
<path d="M223.474 31.9213V39.9039H215.492V31.9213H223.474Z" fill="#000000" fill-opacity="0.85"/>
<path d="M223.474 23.9453V31.9213H215.492V23.9453H223.474Z" fill="#000000" fill-opacity="0.85"/>
<path d="M223.474 15.9625V23.9452H215.492V15.9625H223.474Z" fill="white"/>
<path d="M223.474 7.98121V15.9625H215.492V7.98121H223.474Z" fill="white"/>
<path d="M223.474 -2.39383e-05V7.98132H215.492V-2.39383e-05H223.474Z" fill="white"/>
<path d="M215.492 47.8852V55.8666H207.511V47.8852H215.492Z" fill="#000000" fill-opacity="0.85"/>
<path d="M215.492 39.9039V47.8853H207.511V39.9039H215.492Z" fill="#000000" fill-opacity="0.85"/>
<path d="M215.492 31.9213V39.9039H207.511V31.9213H215.492Z" fill="#000000" fill-opacity="0.85"/>
<path d="M215.492 23.9453V31.9213H207.511V23.9453H215.492Z" fill="#000000" fill-opacity="0.85"/>
<path d="M215.492 15.9625V23.9452H207.511V15.9625H215.492Z" fill="#000000" fill-opacity="0.85"/>
<path d="M215.492 7.98121V15.9625H207.511V7.98121H215.492Z" fill="white"/>
<path d="M207.511 55.8666V63.8492H199.528V55.8666H207.511Z" fill="#000000" fill-opacity="0.85"/>
<path d="M207.511 47.8852V55.8666H199.528V47.8852H207.511Z" fill="#000000" fill-opacity="0.85"/>
<path d="M207.511 39.9039V47.8853H199.528V39.9039H207.511Z" fill="#000000" fill-opacity="0.85"/>
<path d="M207.511 31.9213V39.9039H199.528V31.9213H207.511Z" fill="#000000" fill-opacity="0.85"/>
<path d="M207.511 23.9453V31.9213H199.528V23.9453H207.511Z" fill="#000000" fill-opacity="0.85"/>
<path d="M207.511 15.9625V23.9452H199.528V15.9625H207.511Z" fill="#000000" fill-opacity="0.85"/>
<path d="M207.511 7.98121V15.9625H199.528V7.98121H207.511Z" fill="#000000" fill-opacity="0.85"/>
<path d="M199.528 55.8666V63.8492H191.547V55.8666H199.528Z" fill="#000000" fill-opacity="0.85"/>
<path d="M199.528 47.8852V55.8666H191.547V47.8852H199.528Z" fill="#000000" fill-opacity="0.85"/>
<path d="M199.528 39.9039V47.8853H191.547V39.9039H199.528Z" fill="#000000" fill-opacity="0.85"/>
<path d="M199.528 31.9213V39.9039H191.547V31.9213H199.528Z" fill="#000000" fill-opacity="0.85"/>
<path d="M199.528 23.9453V31.9213H191.547V23.9453H199.528Z" fill="#000000" fill-opacity="0.85"/>
<path d="M199.528 15.9625V23.9452H191.547V15.9625H199.528Z" fill="#000000" fill-opacity="0.85"/>
<path d="M199.528 7.98121V15.9625H191.547V7.98121H199.528Z" fill="#000000" fill-opacity="0.85"/>
<path d="M191.547 55.8666V63.8492H183.564V55.8666H191.547Z" fill="#000000" fill-opacity="0.85"/>
<path d="M191.547 47.8852V55.8666H183.564V47.8852H191.547Z" fill="#000000" fill-opacity="0.85"/>
<path d="M191.547 39.9039V47.8853H183.564V39.9039H191.547Z" fill="#000000" fill-opacity="0.85"/>
<path d="M191.547 31.9213V39.9039H183.564V31.9213H191.547Z" fill="#000000" fill-opacity="0.85"/>
<path d="M191.547 23.9453V31.9213H183.564V23.9453H191.547Z" fill="#000000" fill-opacity="0.85"/>
<path d="M191.547 15.9625V23.9452H183.564V15.9625H191.547Z" fill="#000000" fill-opacity="0.85"/>
<path d="M191.547 7.98121V15.9625H183.564V7.98121H191.547Z" fill="#000000" fill-opacity="0.85"/>
<path d="M183.564 55.8666V63.8492H175.583V55.8666H183.564Z" fill="#000000" fill-opacity="0.85"/>
<path d="M183.564 47.8852V55.8666H175.583V47.8852H183.564Z" fill="white"/>
<path d="M183.564 39.9039V47.8853H175.583V39.9039H183.564Z" fill="#000000" fill-opacity="0.85"/>
<path d="M183.564 31.9213V39.9039H175.583V31.9213H183.564Z" fill="white"/>
<path d="M183.564 23.9453V31.9213H175.583V23.9453H183.564Z" fill="#000000" fill-opacity="0.85"/>
<path d="M183.564 15.9625V23.9452H175.583V15.9625H183.564Z" fill="#000000" fill-opacity="0.85"/>
<path d="M183.564 7.98121V15.9625H175.583V7.98121H183.564Z" fill="#000000" fill-opacity="0.85"/>
<path d="M175.583 55.8666V63.8492H167.601V55.8666H175.583Z" fill="#000000" fill-opacity="0.85"/>
<path d="M175.583 47.8852V55.8666H167.601V47.8852H175.583Z" fill="#000000" fill-opacity="0.85"/>
<path d="M175.583 39.9039V47.8853H167.601V39.9039H175.583Z" fill="white"/>
<path d="M175.583 31.9213V39.9039H167.601V31.9213H175.583Z" fill="#000000" fill-opacity="0.85"/>
<path d="M175.583 23.9453V31.9213H167.601V23.9453H175.583Z" fill="white"/>
<path d="M175.583 15.9625V23.9452H167.601V15.9625H175.583Z" fill="#000000" fill-opacity="0.85"/>
<path d="M175.583 7.98121V15.9625H167.601V7.98121H175.583Z" fill="#000000" fill-opacity="0.85"/>
<path d="M167.601 47.8852V55.8666H159.624V47.8852H167.601Z" fill="#000000" fill-opacity="0.85"/>
<path d="M167.601 39.9039V47.8853H159.624V39.9039H167.601Z" fill="#000000" fill-opacity="0.85"/>
<path d="M167.601 31.9213V39.9039H159.624V31.9213H167.601Z" fill="white"/>
<path d="M167.601 23.9453V31.9213H159.624V23.9453H167.601Z" fill="#000000" fill-opacity="0.85"/>
<path d="M167.601 15.9625V23.9452H159.624V15.9625H167.601Z" fill="white"/>
<path d="M167.601 7.98121V15.9625H159.624V7.98121H167.601Z" fill="#000000" fill-opacity="0.85"/>
<path d="M159.624 47.8852V55.8666H151.643V47.8852H159.624Z" fill="#000000" fill-opacity="0.85"/>
<path d="M159.624 39.9039V47.8853H151.643V39.9039H159.624Z" fill="#000000" fill-opacity="0.85"/>
<path d="M159.624 31.9213V39.9039H151.643V31.9213H159.624Z" fill="#000000" fill-opacity="0.85"/>
<path d="M159.624 23.9453V31.9213H151.643V23.9453H159.624Z" fill="white"/>
<path d="M159.624 15.9625V23.9452H151.643V15.9625H159.624Z" fill="#000000" fill-opacity="0.85"/>
<path d="M159.624 7.98121V15.9625H151.643V7.98121H159.624Z" fill="#000000" fill-opacity="0.85"/>
<path d="M151.643 39.9039V47.8853H143.66V39.9039H151.643Z" fill="#000000" fill-opacity="0.85"/>
<path d="M151.643 31.9213V39.9039H143.66V31.9213H151.643Z" fill="#000000" fill-opacity="0.85"/>
<path d="M151.643 23.9453V31.9213H143.66V23.9453H151.643Z" fill="#000000" fill-opacity="0.85"/>
<path d="M151.643 15.9625V23.9452H143.66V15.9625H151.643Z" fill="white"/>
<path d="M151.643 7.98121V15.9625H143.66V7.98121H151.643Z" fill="#000000" fill-opacity="0.85"/>
<path d="M143.66 23.9453V31.9213H135.679V23.9453H143.66Z" fill="#000000" fill-opacity="0.85"/>
<path d="M143.66 15.9625V23.9452H135.679V15.9625H143.66Z" fill="#000000" fill-opacity="0.85"/>
<path d="M143.66 7.98121V15.9625H135.679V7.98121H143.66Z" fill="#000000" fill-opacity="0.85"/>
<path d="M0 23.9453V31.9213H7.98135V23.9453H0Z" fill="#000000" fill-opacity="0.85"/>
<path d="M0 15.9625V23.9452H7.98135V15.9625H0Z" fill="#000000" fill-opacity="0.85"/>
<path d="M7.98145 31.9213V39.9039H15.9641V31.9213H7.98145Z" fill="#000000" fill-opacity="0.85"/>
<path d="M7.98145 23.9453V31.9213H15.9641V23.9453H7.98145Z" fill="#000000" fill-opacity="0.85"/>
<path d="M7.98145 15.9625V23.9452H15.9641V15.9625H7.98145Z" fill="white"/>
<path d="M7.98145 7.98121V15.9625H15.9641V7.98121H7.98145Z" fill="#000000" fill-opacity="0.85"/>
<path d="M15.9641 39.9039V47.8853H23.9455V39.9039H15.9641Z" fill="#000000" fill-opacity="0.85"/>
<path d="M15.9641 31.9213V39.9039H23.9455V31.9213H15.9641Z" fill="#000000" fill-opacity="0.85"/>
<path d="M15.9641 23.9453V31.9213H23.9455V23.9453H15.9641Z" fill="white"/>
<path d="M15.9641 15.9625V23.9452H23.9455V15.9625H15.9641Z" fill="#000000" fill-opacity="0.85"/>
<path d="M15.9641 7.98121V15.9625H23.9455V7.98121H15.9641Z" fill="#000000" fill-opacity="0.85"/>
<path d="M23.9453 47.8852V55.8666H31.928V47.8852H23.9453Z" fill="#000000" fill-opacity="0.85"/>
<path d="M23.9453 39.9039V47.8853H31.928V39.9039H23.9453Z" fill="#000000" fill-opacity="0.85"/>
<path d="M23.9453 31.9213V39.9039H31.928V31.9213H23.9453Z" fill="white"/>
<path d="M23.9453 23.9453V31.9213H31.928V23.9453H23.9453Z" fill="#000000" fill-opacity="0.85"/>
<path d="M23.9453 15.9625V23.9452H31.928V15.9625H23.9453Z" fill="white"/>
<path d="M23.9453 7.98121V15.9625H31.928V7.98121H23.9453Z" fill="#000000" fill-opacity="0.85"/>
<path d="M31.928 47.8852V55.8666H39.9093V47.8852H31.928Z" fill="#000000" fill-opacity="0.85"/>
<path d="M31.928 39.9039V47.8853H39.9093V39.9039H31.928Z" fill="white"/>
<path d="M31.928 31.9213V39.9039H39.9093V31.9213H31.928Z" fill="#000000" fill-opacity="0.85"/>
<path d="M31.928 23.9453V31.9213H39.9093V23.9453H31.928Z" fill="white"/>
<path d="M31.928 15.9625V23.9452H39.9093V15.9625H31.928Z" fill="#000000" fill-opacity="0.85"/>
<path d="M31.928 7.98121V15.9625H39.9093V7.98121H31.928Z" fill="#000000" fill-opacity="0.85"/>
<path d="M39.9094 55.8666V63.8492H47.8907V55.8666H39.9094Z" fill="#000000" fill-opacity="0.85"/>
<path d="M39.9094 47.8852V55.8666H47.8907V47.8852H39.9094Z" fill="white"/>
<path d="M39.9094 39.9039V47.8853H47.8907V39.9039H39.9094Z" fill="#000000" fill-opacity="0.85"/>
<path d="M39.9094 31.9213V39.9039H47.8907V31.9213H39.9094Z" fill="white"/>
<path d="M39.9094 23.9453V31.9213H47.8907V23.9453H39.9094Z" fill="#000000" fill-opacity="0.85"/>
<path d="M39.9094 15.9625V23.9452H47.8907V15.9625H39.9094Z" fill="#000000" fill-opacity="0.85"/>
<path d="M39.9094 7.98121V15.9625H47.8907V7.98121H39.9094Z" fill="#000000" fill-opacity="0.85"/>
<path d="M47.8906 55.8666V63.8492H55.8733V55.8666H47.8906Z" fill="#000000" fill-opacity="0.85"/>
<path d="M47.8906 47.8852V55.8666H55.8733V47.8852H47.8906Z" fill="#000000" fill-opacity="0.85"/>
<path d="M47.8906 39.9039V47.8853H55.8733V39.9039H47.8906Z" fill="#000000" fill-opacity="0.85"/>
<path d="M47.8906 31.9213V39.9039H55.8733V31.9213H47.8906Z" fill="#000000" fill-opacity="0.85"/>
<path d="M47.8906 23.9453V31.9213H55.8733V23.9453H47.8906Z" fill="#000000" fill-opacity="0.85"/>
<path d="M47.8906 15.9625V23.9452H55.8733V15.9625H47.8906Z" fill="#000000" fill-opacity="0.85"/>
<path d="M47.8906 7.98121V15.9625H55.8733V7.98121H47.8906Z" fill="#000000" fill-opacity="0.85"/>
<path d="M55.8733 55.8666V63.8492H63.8546V55.8666H55.8733Z" fill="#000000" fill-opacity="0.85"/>
<path d="M55.8733 47.8852V55.8666H63.8546V47.8852H55.8733Z" fill="#000000" fill-opacity="0.85"/>
<path d="M55.8733 39.9039V47.8853H63.8546V39.9039H55.8733Z" fill="#000000" fill-opacity="0.85"/>
<path d="M55.8733 31.9213V39.9039H63.8546V31.9213H55.8733Z" fill="#000000" fill-opacity="0.85"/>
<path d="M55.8733 23.9453V31.9213H63.8546V23.9453H55.8733Z" fill="#000000" fill-opacity="0.85"/>
<path d="M55.8733 15.9625V23.9452H63.8546V15.9625H55.8733Z" fill="#000000" fill-opacity="0.85"/>
<path d="M55.8733 7.98121V15.9625H63.8546V7.98121H55.8733Z" fill="#000000" fill-opacity="0.85"/>
<path d="M63.8547 55.8666V63.8492H71.8361V55.8666H63.8547Z" fill="#000000" fill-opacity="0.85"/>
<path d="M63.8547 47.8852V55.8666H71.8361V47.8852H63.8547Z" fill="#000000" fill-opacity="0.85"/>
<path d="M63.8547 39.9039V47.8853H71.8361V39.9039H63.8547Z" fill="#000000" fill-opacity="0.85"/>
<path d="M63.8547 31.9213V39.9039H71.8361V31.9213H63.8547Z" fill="#000000" fill-opacity="0.85"/>
<path d="M63.8547 23.9453V31.9213H71.8361V23.9453H63.8547Z" fill="#000000" fill-opacity="0.85"/>
<path d="M63.8547 15.9625V23.9452H71.8361V15.9625H63.8547Z" fill="#000000" fill-opacity="0.85"/>
<path d="M63.8547 7.98121V15.9625H71.8361V7.98121H63.8547Z" fill="#000000" fill-opacity="0.85"/>
<path d="M71.8359 55.8666V63.8492H79.8186V55.8666H71.8359Z" fill="#000000" fill-opacity="0.85"/>
<path d="M71.8359 47.8852V55.8666H79.8186V47.8852H71.8359Z" fill="#000000" fill-opacity="0.85"/>
<path d="M71.8359 39.9039V47.8853H79.8186V39.9039H71.8359Z" fill="#000000" fill-opacity="0.85"/>
<path d="M71.8359 31.9213V39.9039H79.8186V31.9213H71.8359Z" fill="#000000" fill-opacity="0.85"/>
<path d="M71.8359 23.9453V31.9213H79.8186V23.9453H71.8359Z" fill="#000000" fill-opacity="0.85"/>
<path d="M71.8359 15.9625V23.9452H79.8186V15.9625H71.8359Z" fill="#000000" fill-opacity="0.85"/>
<path d="M71.8359 7.98121V15.9625H79.8186V7.98121H71.8359Z" fill="#000000" fill-opacity="0.85"/>
<path d="M79.8188 47.8852V55.8666H87.7948V47.8852H79.8188Z" fill="#000000" fill-opacity="0.85"/>
<path d="M79.8188 39.9039V47.8853H87.7948V39.9039H79.8188Z" fill="#000000" fill-opacity="0.85"/>
<path d="M79.8188 31.9213V39.9039H87.7948V31.9213H79.8188Z" fill="#000000" fill-opacity="0.85"/>
<path d="M79.8188 23.9453V31.9213H87.7948V23.9453H79.8188Z" fill="#000000" fill-opacity="0.85"/>
<path d="M79.8188 15.9625V23.9452H87.7948V15.9625H79.8188Z" fill="#000000" fill-opacity="0.85"/>
<path d="M79.8188 7.98121V15.9625H87.7948V7.98121H79.8188Z" fill="#000000" fill-opacity="0.85"/>
<path d="M87.7947 47.8852V55.8666H95.7774V47.8852H87.7947Z" fill="#000000" fill-opacity="0.85"/>
<path d="M87.7947 39.9039V47.8853H95.7774V39.9039H87.7947Z" fill="#000000" fill-opacity="0.85"/>
<path d="M87.7947 31.9213V39.9039H95.7774V31.9213H87.7947Z" fill="#000000" fill-opacity="0.85"/>
<path d="M87.7947 23.9453V31.9213H95.7774V23.9453H87.7947Z" fill="#000000" fill-opacity="0.85"/>
<path d="M87.7947 15.9625V23.9452H95.7774V15.9625H87.7947Z" fill="#000000" fill-opacity="0.85"/>
<path d="M87.7947 7.98121V15.9625H95.7774V7.98121H87.7947Z" fill="#000000" fill-opacity="0.85"/>
<path d="M95.7773 39.9039V47.8853H103.759V39.9039H95.7773Z" fill="#000000" fill-opacity="0.85"/>
<path d="M95.7773 31.9213V39.9039H103.759V31.9213H95.7773Z" fill="#000000" fill-opacity="0.85"/>
<path d="M95.7773 23.9453V31.9213H103.759V23.9453H95.7773Z" fill="#000000" fill-opacity="0.85"/>
<path d="M95.7773 15.9625V23.9452H103.759V15.9625H95.7773Z" fill="#000000" fill-opacity="0.85"/>
<path d="M95.7773 7.98121V15.9625H103.759V7.98121H95.7773Z" fill="#000000" fill-opacity="0.85"/>
<path d="M103.759 23.9453V31.9213H111.74V23.9453H103.759Z" fill="#000000" fill-opacity="0.85"/>
<path d="M103.759 15.9625V23.9452H111.74V15.9625H103.759Z" fill="#000000" fill-opacity="0.85"/>
<path d="M111.74 15.9625V23.9452H119.723V15.9625H111.74Z" fill="#000000" fill-opacity="0.85"/>
<path d="M119.723 7.98121V15.9625H127.704V7.98121H119.723Z" fill="#000000" fill-opacity="0.85"/>
<path d="M127.704 7.98121V15.9625H135.687V7.98121H127.704Z" fill="#000000" fill-opacity="0.85"/>
<path d="M127.704 15.9625V23.9452H135.687V15.9625H127.704Z" fill="#000000" fill-opacity="0.85"/>
<path d="M103.759 7.98121V15.9625H111.74V7.98121H103.759Z" fill="#000000" fill-opacity="0.85"/>
<path d="M111.74 7.98121V15.9625H119.723V7.98121H111.74Z" fill="#000000" fill-opacity="0.85"/>
</svg>
