<svg width="256" height="56" viewBox="0 0 256 56" fill="none" xmlns="http://www.w3.org/2000/svg">
<path d="M255.407 23.9399V31.9226H247.426V23.9399H255.407Z" fill="#000000" fill-opacity="0.85"/>
<path d="M255.407 15.9639V23.9399H247.426V15.9639H255.407Z" fill="#000000" fill-opacity="0.85"/>
<path d="M255.407 7.98134V15.964H247.426V7.98134H255.407Z" fill="#000000" fill-opacity="0.85"/>
<path d="M247.426 31.9226V39.9039H239.443V31.9226H247.426Z" fill="#000000" fill-opacity="0.85"/>
<path d="M247.426 23.9399V31.9226H239.443V23.9399H247.426Z" fill="#000000" fill-opacity="0.85"/>
<path d="M247.426 15.9639V23.9399H239.443V15.9639H247.426Z" fill="#000000" fill-opacity="0.85"/>
<path d="M247.426 7.98134V15.964H239.443V7.98134H247.426Z" fill="#000000" fill-opacity="0.85"/>
<path d="M239.443 39.904V47.8854H231.462V39.904H239.443Z" fill="#000000" fill-opacity="0.85"/>
<path d="M239.443 31.9226V39.9039H231.462V31.9226H239.443Z" fill="#000000" fill-opacity="0.85"/>
<path d="M239.443 23.9399V31.9226H231.462V23.9399H239.443Z" fill="#000000" fill-opacity="0.85"/>
<path d="M239.443 15.9639V23.9399H231.462V15.9639H239.443Z" fill="#000000" fill-opacity="0.85"/>
<path d="M239.443 7.98134V15.964H231.462V7.98134H239.443Z" fill="#000000" fill-opacity="0.85"/>
<path d="M231.462 39.904V47.8854H223.479V39.904H231.462Z" fill="#000000" fill-opacity="0.85"/>
<path d="M231.462 31.9226V39.9039H223.479V31.9226H231.462Z" fill="#000000" fill-opacity="0.85"/>
<path d="M231.462 23.9399V31.9226H223.479V23.9399H231.462Z" fill="#000000" fill-opacity="0.85"/>
<path d="M231.462 15.9639V23.9399H223.479V15.9639H231.462Z" fill="#000000" fill-opacity="0.85"/>
<path d="M231.462 7.98134V15.964H223.479V7.98134H231.462Z" fill="#000000" fill-opacity="0.85"/>
<path d="M223.479 39.904V47.8854H215.498V39.904H223.479Z" fill="#000000" fill-opacity="0.85"/>
<path d="M223.479 31.9226V39.9039H215.498V31.9226H223.479Z" fill="#000000" fill-opacity="0.85"/>
<path d="M223.479 23.9399V31.9226H215.498V23.9399H223.479Z" fill="#000000" fill-opacity="0.85"/>
<path d="M223.479 15.9639V23.9399H215.498V15.9639H223.479Z" fill="#000000" fill-opacity="0.85"/>
<path d="M223.479 7.98134V15.964H215.498V7.98134H223.479Z" fill="#000000" fill-opacity="0.85"/>
<path d="M215.498 39.904V47.8854H207.517V39.904H215.498Z" fill="#000000" fill-opacity="0.85"/>
<path d="M215.498 31.9226V39.9039H207.517V31.9226H215.498Z" fill="#000000" fill-opacity="0.85"/>
<path d="M215.498 23.9399V31.9226H207.517V23.9399H215.498Z" fill="#000000" fill-opacity="0.85"/>
<path d="M215.498 15.9639V23.9399H207.517V15.9639H215.498Z" fill="#000000" fill-opacity="0.85"/>
<path d="M215.498 7.98134V15.964H207.517V7.98134H215.498Z" fill="#000000" fill-opacity="0.85"/>
<path d="M207.517 39.904V47.8854H199.534V39.904H207.517Z" fill="#000000" fill-opacity="0.85"/>
<path d="M207.517 31.9226V39.9039H199.534V31.9226H207.517Z" fill="white"/>
<path d="M207.517 23.9399V31.9226H199.534V23.9399H207.517Z" fill="#000000" fill-opacity="0.85"/>
<path d="M207.517 15.9639V23.9399H199.534V15.9639H207.517Z" fill="white"/>
<path d="M207.517 7.98134V15.964H199.534V7.98134H207.517Z" fill="#000000" fill-opacity="0.85"/>
<path d="M199.534 39.904V47.8854H191.552V39.904H199.534Z" fill="#000000" fill-opacity="0.85"/>
<path d="M199.534 31.9226V39.9039H191.552V31.9226H199.534Z" fill="#000000" fill-opacity="0.85"/>
<path d="M199.534 23.9399V31.9226H191.552V23.9399H199.534Z" fill="white"/>
<path d="M199.534 15.9639V23.9399H191.552V15.9639H199.534Z" fill="#000000" fill-opacity="0.85"/>
<path d="M199.534 7.98134V15.964H191.552V7.98134H199.534Z" fill="#000000" fill-opacity="0.85"/>
<path d="M191.553 31.9226V39.9039H183.571V31.9226H191.553Z" fill="#000000" fill-opacity="0.85"/>
<path d="M191.553 23.9399V31.9226H183.571V23.9399H191.553Z" fill="#000000" fill-opacity="0.85"/>
<path d="M191.553 15.9639V23.9399H183.571V15.9639H191.553Z" fill="white"/>
<path d="M191.553 7.98134V15.964H183.571V7.98134H191.553Z" fill="#000000" fill-opacity="0.85"/>
<path d="M183.571 23.9399V31.9226H175.589V23.9399H183.571Z" fill="#000000" fill-opacity="0.85"/>
<path d="M183.571 15.9639V23.9399H175.589V15.9639H183.571Z" fill="#000000" fill-opacity="0.85"/>
<path d="M183.571 7.98134V15.964H175.589V7.98134H183.571Z" fill="#000000" fill-opacity="0.85"/>
<path d="M175.589 7.98134V15.964H167.613V7.98134H175.589Z" fill="#000000" fill-opacity="0.85"/>
<path d="M167.613 7.98134V15.964H159.63V7.98134H167.613Z" fill="#000000" fill-opacity="0.85"/>
<path d="M159.63 23.9399V31.9226H151.649V23.9399H159.63Z" fill="#000000" fill-opacity="0.85"/>
<path d="M159.63 15.9639V23.9399H151.649V15.9639H159.63Z" fill="#000000" fill-opacity="0.85"/>
<path d="M159.63 7.98134V15.964H151.649V7.98134H159.63Z" fill="#000000" fill-opacity="0.85"/>
<path d="M151.649 31.9226V39.9039H143.666V31.9226H151.649Z" fill="#000000" fill-opacity="0.85"/>
<path d="M151.649 23.9399V31.9226H143.666V23.9399H151.649Z" fill="#000000" fill-opacity="0.85"/>
<path d="M151.649 15.9639V23.9399H143.666V15.9639H151.649Z" fill="#000000" fill-opacity="0.85"/>
<path d="M151.649 7.98134V15.964H143.666V7.98134H151.649Z" fill="#000000" fill-opacity="0.85"/>
<path d="M143.666 39.904V47.8854H135.685V39.904H143.666Z" fill="#000000" fill-opacity="0.85"/>
<path d="M143.666 31.9226V39.9039H135.685V31.9226H143.666Z" fill="#000000" fill-opacity="0.85"/>
<path d="M143.666 23.9399V31.9226H135.685V23.9399H143.666Z" fill="#000000" fill-opacity="0.85"/>
<path d="M143.666 15.9639V23.9399H135.685V15.9639H143.666Z" fill="#000000" fill-opacity="0.85"/>
<path d="M143.666 7.98134V15.964H135.685V7.98134H143.666Z" fill="#000000" fill-opacity="0.85"/>
<path d="M135.685 39.904V47.8854H127.703V39.904H135.685Z" fill="#000000" fill-opacity="0.85"/>
<path d="M135.685 31.9226V39.9039H127.703V31.9226H135.685Z" fill="#000000" fill-opacity="0.85"/>
<path d="M135.685 23.9399V31.9226H127.703V23.9399H135.685Z" fill="#000000" fill-opacity="0.85"/>
<path d="M135.685 15.9639V23.9399H127.703V15.9639H135.685Z" fill="#000000" fill-opacity="0.85"/>
<path d="M135.685 7.98134V15.964H127.703V7.98134H135.685Z" fill="#000000" fill-opacity="0.85"/>
<path d="M127.703 47.8853V55.8679H119.721V47.8853H127.703Z" fill="#000000" fill-opacity="0.85"/>
<path d="M127.703 39.904V47.8854H119.721V39.904H127.703Z" fill="#000000" fill-opacity="0.85"/>
<path d="M127.703 31.9226V39.9039H119.721V31.9226H127.703Z" fill="#000000" fill-opacity="0.85"/>
<path d="M127.703 23.9399V31.9226H119.721V23.9399H127.703Z" fill="#000000" fill-opacity="0.85"/>
<path d="M127.703 15.9639V23.9399H119.721V15.9639H127.703Z" fill="#000000" fill-opacity="0.85"/>
<path d="M127.703 7.98134V15.964H119.721V7.98134H127.703Z" fill="#000000" fill-opacity="0.85"/>
<path d="M119.721 47.8853V55.8679H111.739V47.8853H119.721Z" fill="#000000" fill-opacity="0.85"/>
<path d="M119.721 39.904V47.8854H111.739V39.904H119.721Z" fill="#000000" fill-opacity="0.85"/>
<path d="M119.721 31.9226V39.9039H111.739V31.9226H119.721Z" fill="#000000" fill-opacity="0.85"/>
<path d="M119.721 23.9399V31.9226H111.739V23.9399H119.721Z" fill="#000000" fill-opacity="0.85"/>
<path d="M119.721 15.9639V23.9399H111.739V15.9639H119.721Z" fill="#000000" fill-opacity="0.85"/>
<path d="M119.721 7.98134V15.964H111.739V7.98134H119.721Z" fill="#000000" fill-opacity="0.85"/>
<path d="M111.739 47.8853V55.8679H103.758V47.8853H111.739Z" fill="#000000" fill-opacity="0.85"/>
<path d="M111.739 39.904V47.8854H103.758V39.904H111.739Z" fill="#000000" fill-opacity="0.85"/>
<path d="M111.739 31.9226V39.9039H103.758V31.9226H111.739Z" fill="#000000" fill-opacity="0.85"/>
<path d="M111.739 23.9399V31.9226H103.758V23.9399H111.739Z" fill="#000000" fill-opacity="0.85"/>
<path d="M111.739 15.9639V23.9399H103.758V15.9639H111.739Z" fill="#000000" fill-opacity="0.85"/>
<path d="M111.739 7.98134V15.964H103.758V7.98134H111.739Z" fill="#000000" fill-opacity="0.85"/>
<path d="M103.758 47.8853V55.8679H95.7751V47.8853H103.758Z" fill="#000000" fill-opacity="0.85"/>
<path d="M103.758 39.904V47.8854H95.7751V39.904H103.758Z" fill="white"/>
<path d="M103.758 31.9226V39.9039H95.7751V31.9226H103.758Z" fill="#000000" fill-opacity="0.85"/>
<path d="M103.758 23.9399V31.9226H95.7751V23.9399H103.758Z" fill="white"/>
<path d="M103.758 15.9639V23.9399H95.7751V15.9639H103.758Z" fill="#000000" fill-opacity="0.85"/>
<path d="M103.758 7.98134V15.964H95.7751V7.98134H103.758Z" fill="#000000" fill-opacity="0.85"/>
<path d="M95.7753 39.904V47.8854H87.7993V39.904H95.7753Z" fill="#000000" fill-opacity="0.85"/>
<path d="M95.7753 31.9226V39.9039H87.7993V31.9226H95.7753Z" fill="white"/>
<path d="M95.7753 23.9399V31.9226H87.7993V23.9399H95.7753Z" fill="#000000" fill-opacity="0.85"/>
<path d="M95.7753 15.9639V23.9399H87.7993V15.9639H95.7753Z" fill="white"/>
<path d="M95.7753 7.98134V15.964H87.7993V7.98134H95.7753Z" fill="#000000" fill-opacity="0.85"/>
<path d="M87.7993 39.904V47.8854H79.8167V39.904H87.7993Z" fill="#000000" fill-opacity="0.85"/>
<path d="M87.7993 31.9226V39.9039H79.8167V31.9226H87.7993Z" fill="#000000" fill-opacity="0.85"/>
<path d="M87.7993 23.9399V31.9226H79.8167V23.9399H87.7993Z" fill="white"/>
<path d="M87.7993 15.9639V23.9399H79.8167V15.9639H87.7993Z" fill="#000000" fill-opacity="0.85"/>
<path d="M87.7993 7.98134V15.964H79.8167V7.98134H87.7993Z" fill="#000000" fill-opacity="0.85"/>
<path d="M79.8166 31.9226V39.9039H71.835V31.9226H79.8166Z" fill="#000000" fill-opacity="0.85"/>
<path d="M79.8166 23.9399V31.9226H71.835V23.9399H79.8166Z" fill="#000000" fill-opacity="0.85"/>
<path d="M79.8166 15.9639V23.9399H71.835V15.9639H79.8166Z" fill="white"/>
<path d="M79.8166 7.98134V15.964H71.835V7.98134H79.8166Z" fill="#000000" fill-opacity="0.85"/>
<path d="M71.835 23.9399V31.9226H63.8533V23.9399H71.835Z" fill="#000000" fill-opacity="0.85"/>
<path d="M71.835 15.9639V23.9399H63.8533V15.9639H71.835Z" fill="#000000" fill-opacity="0.85"/>
<path d="M71.835 7.98134V15.964H63.8533V7.98134H71.835Z" fill="#000000" fill-opacity="0.85"/>
<path d="M63.8532 7.98134V15.964H55.8713V7.98134H63.8532Z" fill="#000000" fill-opacity="0.85"/>
<path d="M55.8714 -2.39383e-05V7.98132H47.8896V-2.39383e-05H55.8714Z" fill="#000000" fill-opacity="0.85"/>
<path d="M47.8897 -2.39383e-05V7.98132H39.908V-2.39383e-05H47.8897Z" fill="#000000" fill-opacity="0.85"/>
<path d="M39.908 -2.39383e-05V7.98132H31.9263V-2.39383e-05H39.908Z" fill="#000000" fill-opacity="0.85"/>
<path d="M31.9262 -2.39383e-05V7.98132H23.9443V-2.39383e-05H31.9262Z" fill="#000000" fill-opacity="0.85"/>
<path d="M23.9444 -2.39383e-05V7.98132H15.9626V-2.39383e-05H23.9444Z" fill="#000000" fill-opacity="0.85"/>
<path d="M23.9444 7.98134V15.964H15.9626V7.98134H23.9444Z" fill="#000000" fill-opacity="0.85"/>
<path d="M15.9627 7.98134V15.964H7.98096V7.98134H15.9627Z" fill="#000000" fill-opacity="0.85"/>
<path d="M7.98186 15.9626V23.944H0V15.9626H7.98186Z" fill="#000000" fill-opacity="0.85"/>
</svg>
