<svg width="248" height="80" viewBox="0 0 248 80" fill="none" xmlns="http://www.w3.org/2000/svg">
<path d="M247.422 55.8666V63.8492H239.44V55.8666H247.422Z" fill="#000000" fill-opacity="0.85"/>
<path d="M247.422 47.8853V55.8666H239.44V47.8853H247.422Z" fill="#000000" fill-opacity="0.85"/>
<path d="M239.44 63.8493V71.8306H231.458V63.8493H239.44Z" fill="#000000" fill-opacity="0.85"/>
<path d="M239.44 55.8666V63.8492H231.458V55.8666H239.44Z" fill="#000000" fill-opacity="0.85"/>
<path d="M239.44 47.8853V55.8666H231.458V47.8853H239.44Z" fill="#000000" fill-opacity="0.85"/>
<path d="M231.458 71.8305V79.8119H223.476V71.8305H231.458Z" fill="#000000" fill-opacity="0.85"/>
<path d="M231.458 63.8493V71.8306H223.476V63.8493H231.458Z" fill="#000000" fill-opacity="0.85"/>
<path d="M231.458 55.8666V63.8492H223.476V55.8666H231.458Z" fill="#000000" fill-opacity="0.85"/>
<path d="M231.458 47.8853V55.8666H223.476V47.8853H231.458Z" fill="#000000" fill-opacity="0.85"/>
<path d="M223.476 71.8305V79.8119H215.499V71.8305H223.476Z" fill="#000000" fill-opacity="0.85"/>
<path d="M223.476 63.8493V71.8306H215.499V63.8493H223.476Z" fill="#000000" fill-opacity="0.85"/>
<path d="M223.476 55.8666V63.8492H215.499V55.8666H223.476Z" fill="#000000" fill-opacity="0.85"/>
<path d="M223.476 47.8853V55.8666H215.499V47.8853H223.476Z" fill="#000000" fill-opacity="0.85"/>
<path d="M215.499 71.8305V79.8119H207.518V71.8305H215.499Z" fill="#000000" fill-opacity="0.85"/>
<path d="M215.499 63.8493V71.8306H207.518V63.8493H215.499Z" fill="#000000" fill-opacity="0.85"/>
<path d="M215.499 55.8666V63.8492H207.518V55.8666H215.499Z" fill="#000000" fill-opacity="0.85"/>
<path d="M215.499 47.8853V55.8666H207.518V47.8853H215.499Z" fill="#000000" fill-opacity="0.85"/>
<path d="M207.518 71.8305V79.8119H199.536V71.8305H207.518Z" fill="#000000" fill-opacity="0.85"/>
<path d="M207.518 63.8493V71.8306H199.536V63.8493H207.518Z" fill="#000000" fill-opacity="0.85"/>
<path d="M207.518 55.8666V63.8492H199.536V55.8666H207.518Z" fill="#000000" fill-opacity="0.85"/>
<path d="M207.518 47.8853V55.8666H199.536V47.8853H207.518Z" fill="#000000" fill-opacity="0.85"/>
<path d="M199.536 71.8305V79.8119H191.554V71.8305H199.536Z" fill="#000000" fill-opacity="0.85"/>
<path d="M199.536 63.8493V71.8306H191.554V63.8493H199.536Z" fill="#000000" fill-opacity="0.85"/>
<path d="M199.536 55.8666V63.8492H191.554V55.8666H199.536Z" fill="#000000" fill-opacity="0.85"/>
<path d="M199.536 47.8853V55.8666H191.554V47.8853H199.536Z" fill="#000000" fill-opacity="0.85"/>
<path d="M191.554 71.8305V79.8119H183.572V71.8305H191.554Z" fill="#000000" fill-opacity="0.85"/>
<path d="M191.554 63.8493V71.8306H183.572V63.8493H191.554Z" fill="white"/>
<path d="M191.554 55.8666V63.8492H183.572V55.8666H191.554Z" fill="#000000" fill-opacity="0.85"/>
<path d="M191.554 47.8853V55.8666H183.572V47.8853H191.554Z" fill="#000000" fill-opacity="0.85"/>
<path d="M183.572 71.8305V79.8119H175.59V71.8305H183.572Z" fill="#000000" fill-opacity="0.85"/>
<path d="M183.572 63.8493V71.8306H175.59V63.8493H183.572Z" fill="#000000" fill-opacity="0.85"/>
<path d="M183.572 55.8666V63.8492H175.59V55.8666H183.572Z" fill="white"/>
<path d="M183.572 47.8853V55.8666H175.59V47.8853H183.572Z" fill="#000000" fill-opacity="0.85"/>
<path d="M175.59 71.8305V79.8119H167.608V71.8305H175.59Z" fill="#000000" fill-opacity="0.85"/>
<path d="M175.59 63.8493V71.8306H167.608V63.8493H175.59Z" fill="white"/>
<path d="M175.59 55.8666V63.8492H167.608V55.8666H175.59Z" fill="#000000" fill-opacity="0.85"/>
<path d="M175.59 47.8853V55.8666H167.608V47.8853H175.59Z" fill="#000000" fill-opacity="0.85"/>
<path d="M167.608 63.8493V71.8306H159.627V63.8493H167.608Z" fill="#000000" fill-opacity="0.85"/>
<path d="M167.608 55.8666V63.8492H159.627V55.8666H167.608Z" fill="white"/>
<path d="M167.608 47.8853V55.8666H159.627V47.8853H167.608Z" fill="#000000" fill-opacity="0.85"/>
<path d="M159.627 55.8666V63.8492H151.644V55.8666H159.627Z" fill="#000000" fill-opacity="0.85"/>
<path d="M159.627 47.8853V55.8666H151.644V47.8853H159.627Z" fill="#000000" fill-opacity="0.85"/>
<path d="M151.644 47.8853V55.8666H143.663V47.8853H151.644Z" fill="#000000" fill-opacity="0.85"/>
<path d="M143.663 55.8666V63.8492H135.68V55.8666H143.663Z" fill="#000000" fill-opacity="0.85"/>
<path d="M143.663 47.8853V55.8666H135.68V47.8853H143.663Z" fill="#000000" fill-opacity="0.85"/>
<path d="M135.68 63.8493V71.8306H127.704V63.8493H135.68Z" fill="#000000" fill-opacity="0.85"/>
<path d="M135.68 55.8666V63.8492H127.704V55.8666H135.68Z" fill="#000000" fill-opacity="0.85"/>
<path d="M135.68 47.8853V55.8666H127.704V47.8853H135.68Z" fill="#000000" fill-opacity="0.85"/>
<path d="M127.704 71.8305V79.8119H119.722V71.8305H127.704Z" fill="#000000" fill-opacity="0.85"/>
<path d="M127.704 63.8493V71.8306H119.722V63.8493H127.704Z" fill="#000000" fill-opacity="0.85"/>
<path d="M127.704 55.8666V63.8492H119.722V55.8666H127.704Z" fill="#000000" fill-opacity="0.85"/>
<path d="M127.704 47.8853V55.8666H119.722V47.8853H127.704Z" fill="#000000" fill-opacity="0.85"/>
<path d="M119.722 71.8305V79.8119H111.74V71.8305H119.722Z" fill="#000000" fill-opacity="0.85"/>
<path d="M119.722 63.8493V71.8306H111.74V63.8493H119.722Z" fill="#000000" fill-opacity="0.85"/>
<path d="M119.722 55.8666V63.8492H111.74V55.8666H119.722Z" fill="#000000" fill-opacity="0.85"/>
<path d="M119.722 47.8853V55.8666H111.74V47.8853H119.722Z" fill="#000000" fill-opacity="0.85"/>
<path d="M111.74 71.8305V79.8119H103.759V71.8305H111.74Z" fill="#000000" fill-opacity="0.85"/>
<path d="M111.74 63.8493V71.8306H103.759V63.8493H111.74Z" fill="#000000" fill-opacity="0.85"/>
<path d="M111.74 55.8666V63.8492H103.759V55.8666H111.74Z" fill="#000000" fill-opacity="0.85"/>
<path d="M111.74 47.8853V55.8666H103.759V47.8853H111.74Z" fill="#000000" fill-opacity="0.85"/>
<path d="M103.759 71.8305V79.8119H95.7764V71.8305H103.759Z" fill="#000000" fill-opacity="0.85"/>
<path d="M103.759 63.8493V71.8306H95.7764V63.8493H103.759Z" fill="#000000" fill-opacity="0.85"/>
<path d="M103.759 55.8666V63.8492H95.7764V55.8666H103.759Z" fill="#000000" fill-opacity="0.85"/>
<path d="M103.759 47.8853V55.8666H95.7764V47.8853H103.759Z" fill="#000000" fill-opacity="0.85"/>
<path d="M95.7763 71.8305V79.8119H87.7949V71.8305H95.7763Z" fill="#000000" fill-opacity="0.85"/>
<path d="M95.7763 63.8493V71.8306H87.7949V63.8493H95.7763Z" fill="#000000" fill-opacity="0.85"/>
<path d="M95.7763 55.8666V63.8492H87.7949V55.8666H95.7763Z" fill="#000000" fill-opacity="0.85"/>
<path d="M95.7763 47.8853V55.8666H87.7949V47.8853H95.7763Z" fill="#000000" fill-opacity="0.85"/>
<path d="M87.7951 71.8305V79.8119H79.8137V71.8305H87.7951Z" fill="#000000" fill-opacity="0.85"/>
<path d="M87.7951 63.8493V71.8306H79.8137V63.8493H87.7951Z" fill="white"/>
<path d="M87.7951 55.8666V63.8492H79.8137V55.8666H87.7951Z" fill="#000000" fill-opacity="0.85"/>
<path d="M87.7951 47.8853V55.8666H79.8137V47.8853H87.7951Z" fill="#000000" fill-opacity="0.85"/>
<path d="M79.8137 71.8305V79.8119H71.8311V71.8305H79.8137Z" fill="#000000" fill-opacity="0.85"/>
<path d="M79.8137 63.8493V71.8306H71.8311V63.8493H79.8137Z" fill="#000000" fill-opacity="0.85"/>
<path d="M79.8137 55.8666V63.8492H71.8311V55.8666H79.8137Z" fill="white"/>
<path d="M79.8137 47.8853V55.8666H71.8311V47.8853H79.8137Z" fill="#000000" fill-opacity="0.85"/>
<path d="M71.831 71.8305V79.8119H63.8494V71.8305H71.831Z" fill="#000000" fill-opacity="0.85"/>
<path d="M71.831 63.8493V71.8306H63.8494V63.8493H71.831Z" fill="white"/>
<path d="M71.831 55.8666V63.8492H63.8494V55.8666H71.831Z" fill="#000000" fill-opacity="0.85"/>
<path d="M71.831 47.8853V55.8666H63.8494V47.8853H71.831Z" fill="#000000" fill-opacity="0.85"/>
<path d="M63.8494 63.8493V71.8306H55.8677V63.8493H63.8494Z" fill="#000000" fill-opacity="0.85"/>
<path d="M63.8494 55.8666V63.8492H55.8677V55.8666H63.8494Z" fill="white"/>
<path d="M63.8494 47.8853V55.8666H55.8677V47.8853H63.8494Z" fill="#000000" fill-opacity="0.85"/>
<path d="M55.8678 55.8666V63.8492H47.8911V55.8666H55.8678Z" fill="#000000" fill-opacity="0.85"/>
<path d="M55.8678 47.8853V55.8666H47.8911V47.8853H55.8678Z" fill="#000000" fill-opacity="0.85"/>
<path d="M47.891 47.8853V55.8666H39.9087V47.8853H47.891Z" fill="#000000" fill-opacity="0.85"/>
<path d="M47.891 39.9039V47.8853H39.9087V39.9039H47.891Z" fill="#000000" fill-opacity="0.85"/>
<path d="M47.891 31.9213V39.9039H39.9087V31.9213H47.891Z" fill="#000000" fill-opacity="0.85"/>
<path d="M39.9087 31.9213V39.9039H31.9275V31.9213H39.9087Z" fill="#000000" fill-opacity="0.85"/>
<path d="M39.9087 23.9399V31.9213H31.9275V23.9399H39.9087Z" fill="#000000" fill-opacity="0.85"/>
<path d="M31.9276 23.9399V31.9213H23.9453V23.9399H31.9276Z" fill="#000000" fill-opacity="0.85"/>
<path d="M31.9276 15.9573V23.9399H23.9453V15.9573H31.9276Z" fill="#000000" fill-opacity="0.85"/>
<path d="M23.9452 15.9573V23.9399H15.9634V15.9573H23.9452Z" fill="#000000" fill-opacity="0.85"/>
<path d="M23.9452 7.9759V15.9573H15.9634V7.9759H23.9452Z" fill="#000000" fill-opacity="0.85"/>
<path d="M15.9634 7.9759V15.9573H7.98169V7.9759H15.9634Z" fill="#000000" fill-opacity="0.85"/>
<path d="M15.9634 -2.39387e-05V7.97595H7.98169V-2.39387e-05H15.9634Z" fill="#000000" fill-opacity="0.85"/>
<path d="M7.98173 -2.39387e-05V7.97595H0V-2.39387e-05H7.98173Z" fill="#000000" fill-opacity="0.85"/>
<path d="M247.422 39.9039V47.8853H239.44V39.9039H247.422Z" fill="#000000" fill-opacity="0.85"/>
</svg>
