<svg width="248" height="56" viewBox="0 0 248 56" fill="none" xmlns="http://www.w3.org/2000/svg">
<path d="M0 23.9399V31.9226H7.98268V23.9399H0Z" fill="#000000" fill-opacity="0.85"/>
<path d="M0 15.9639V23.9399H7.98268V15.9639H0Z" fill="#000000" fill-opacity="0.85"/>
<path d="M0 7.98134V15.964H7.98268V7.98134H0Z" fill="#000000" fill-opacity="0.85"/>
<path d="M7.98267 31.9226V39.9039H15.964V31.9226H7.98267Z" fill="#000000" fill-opacity="0.85"/>
<path d="M7.98267 23.9399V31.9226H15.964V23.9399H7.98267Z" fill="#000000" fill-opacity="0.85"/>
<path d="M7.98267 15.9639V23.9399H15.964V15.9639H7.98267Z" fill="white"/>
<path d="M7.98267 7.98134V15.964H15.964V7.98134H7.98267Z" fill="#000000" fill-opacity="0.85"/>
<path d="M15.9641 39.904V47.8854H23.9468V39.904H15.9641Z" fill="#000000" fill-opacity="0.85"/>
<path d="M15.9641 31.9226V39.9039H23.9468V31.9226H15.9641Z" fill="#000000" fill-opacity="0.85"/>
<path d="M15.9641 23.9399V31.9226H23.9468V23.9399H15.9641Z" fill="white"/>
<path d="M15.9641 15.9639V23.9399H23.9468V15.9639H15.9641Z" fill="#000000" fill-opacity="0.85"/>
<path d="M15.9641 7.98134V15.964H23.9468V7.98134H15.9641Z" fill="#000000" fill-opacity="0.85"/>
<path d="M23.9468 39.904V47.8854H31.9281V39.904H23.9468Z" fill="#000000" fill-opacity="0.85"/>
<path d="M23.9468 31.9226V39.9039H31.9281V31.9226H23.9468Z" fill="white"/>
<path d="M23.9468 23.9399V31.9226H31.9281V23.9399H23.9468Z" fill="#000000" fill-opacity="0.85"/>
<path d="M23.9468 15.9639V23.9399H31.9281V15.9639H23.9468Z" fill="white"/>
<path d="M23.9468 7.98134V15.964H31.9281V7.98134H23.9468Z" fill="#000000" fill-opacity="0.85"/>
<path d="M31.9282 39.904V47.8854H39.9095V39.904H31.9282Z" fill="#000000" fill-opacity="0.85"/>
<path d="M31.9282 31.9226V39.9039H39.9095V31.9226H31.9282Z" fill="#000000" fill-opacity="0.85"/>
<path d="M31.9282 23.9399V31.9226H39.9095V23.9399H31.9282Z" fill="#000000" fill-opacity="0.85"/>
<path d="M31.9282 15.9639V23.9399H39.9095V15.9639H31.9282Z" fill="#000000" fill-opacity="0.85"/>
<path d="M31.9282 7.98134V15.964H39.9095V7.98134H31.9282Z" fill="#000000" fill-opacity="0.85"/>
<path d="M39.9094 39.904V47.8854H47.8921V39.904H39.9094Z" fill="#000000" fill-opacity="0.85"/>
<path d="M39.9094 31.9226V39.9039H47.8921V31.9226H39.9094Z" fill="#000000" fill-opacity="0.85"/>
<path d="M39.9094 23.9399V31.9226H47.8921V23.9399H39.9094Z" fill="#000000" fill-opacity="0.85"/>
<path d="M39.9094 15.9639V23.9399H47.8921V15.9639H39.9094Z" fill="#000000" fill-opacity="0.85"/>
<path d="M39.9094 7.98134V15.964H47.8921V7.98134H39.9094Z" fill="#000000" fill-opacity="0.85"/>
<path d="M47.8921 39.904V47.8854H55.8734V39.904H47.8921Z" fill="#000000" fill-opacity="0.85"/>
<path d="M47.8921 31.9226V39.9039H55.8734V31.9226H47.8921Z" fill="#000000" fill-opacity="0.85"/>
<path d="M47.8921 23.9399V31.9226H55.8734V23.9399H47.8921Z" fill="#000000" fill-opacity="0.85"/>
<path d="M47.8921 15.9639V23.9399H55.8734V15.9639H47.8921Z" fill="#000000" fill-opacity="0.85"/>
<path d="M47.8921 7.98134V15.964H55.8734V7.98134H47.8921Z" fill="#000000" fill-opacity="0.85"/>
<path d="M55.8735 39.904V47.8854H63.8549V39.904H55.8735Z" fill="#000000" fill-opacity="0.85"/>
<path d="M55.8735 31.9226V39.9039H63.8549V31.9226H55.8735Z" fill="#000000" fill-opacity="0.85"/>
<path d="M55.8735 23.9399V31.9226H63.8549V23.9399H55.8735Z" fill="white"/>
<path d="M55.8735 15.9639V23.9399H63.8549V15.9639H55.8735Z" fill="#000000" fill-opacity="0.85"/>
<path d="M55.8735 7.98134V15.964H63.8549V7.98134H55.8735Z" fill="#000000" fill-opacity="0.85"/>
<path d="M63.8547 31.9226V39.9039H71.8374V31.9226H63.8547Z" fill="#000000" fill-opacity="0.85"/>
<path d="M63.8547 23.9399V31.9226H71.8374V23.9399H63.8547Z" fill="#000000" fill-opacity="0.85"/>
<path d="M63.8547 15.9639V23.9399H71.8374V15.9639H63.8547Z" fill="white"/>
<path d="M63.8547 7.98134V15.964H71.8374V7.98134H63.8547Z" fill="#000000" fill-opacity="0.85"/>
<path d="M71.8374 23.9399V31.9226H79.8187V23.9399H71.8374Z" fill="#000000" fill-opacity="0.85"/>
<path d="M71.8374 15.9639V23.9399H79.8187V15.9639H71.8374Z" fill="#000000" fill-opacity="0.85"/>
<path d="M71.8374 7.98134V15.964H79.8187V7.98134H71.8374Z" fill="#000000" fill-opacity="0.85"/>
<path d="M79.8188 7.98134V15.964H87.7962V7.98134H79.8188Z" fill="#000000" fill-opacity="0.85"/>
<path d="M87.7961 7.98134V15.964H95.7775V7.98134H87.7961Z" fill="#000000" fill-opacity="0.85"/>
<path d="M95.7773 23.9399V31.9226H103.76V23.9399H95.7773Z" fill="#000000" fill-opacity="0.85"/>
<path d="M95.7773 15.9639V23.9399H103.76V15.9639H95.7773Z" fill="#000000" fill-opacity="0.85"/>
<path d="M95.7773 7.98134V15.964H103.76V7.98134H95.7773Z" fill="#000000" fill-opacity="0.85"/>
<path d="M103.76 31.9226V39.9039H111.741V31.9226H103.76Z" fill="#000000" fill-opacity="0.85"/>
<path d="M103.76 23.9399V31.9226H111.741V23.9399H103.76Z" fill="#000000" fill-opacity="0.85"/>
<path d="M103.76 15.9639V23.9399H111.741V15.9639H103.76Z" fill="white"/>
<path d="M103.76 7.98134V15.964H111.741V7.98134H103.76Z" fill="#000000" fill-opacity="0.85"/>
<path d="M111.741 39.904V47.8854H119.723V39.904H111.741Z" fill="#000000" fill-opacity="0.85"/>
<path d="M111.741 31.9226V39.9039H119.723V31.9226H111.741Z" fill="#000000" fill-opacity="0.85"/>
<path d="M111.741 23.9399V31.9226H119.723V23.9399H111.741Z" fill="white"/>
<path d="M111.741 15.9639V23.9399H119.723V15.9639H111.741Z" fill="#000000" fill-opacity="0.85"/>
<path d="M111.741 7.98134V15.964H119.723V7.98134H111.741Z" fill="#000000" fill-opacity="0.85"/>
<path d="M119.723 39.904V47.8854H127.706V39.904H119.723Z" fill="#000000" fill-opacity="0.85"/>
<path d="M119.723 31.9226V39.9039H127.706V31.9226H119.723Z" fill="white"/>
<path d="M119.723 23.9399V31.9226H127.706V23.9399H119.723Z" fill="#000000" fill-opacity="0.85"/>
<path d="M119.723 15.9639V23.9399H127.706V15.9639H119.723Z" fill="white"/>
<path d="M119.723 7.98134V15.964H127.706V7.98134H119.723Z" fill="#000000" fill-opacity="0.85"/>
<path d="M127.705 47.8853V55.8679H135.687V47.8853H127.705Z" fill="#000000" fill-opacity="0.85"/>
<path d="M127.705 39.904V47.8854H135.687V39.904H127.705Z" fill="white"/>
<path d="M127.705 31.9226V39.9039H135.687V31.9226H127.705Z" fill="#000000" fill-opacity="0.85"/>
<path d="M127.705 23.9399V31.9226H135.687V23.9399H127.705Z" fill="white"/>
<path d="M127.705 15.9639V23.9399H135.687V15.9639H127.705Z" fill="#000000" fill-opacity="0.85"/>
<path d="M127.705 7.98134V15.964H135.687V7.98134H127.705Z" fill="#000000" fill-opacity="0.85"/>
<path d="M135.687 47.8853V55.8679H143.668V47.8853H135.687Z" fill="#000000" fill-opacity="0.85"/>
<path d="M135.687 39.904V47.8854H143.668V39.904H135.687Z" fill="#000000" fill-opacity="0.85"/>
<path d="M135.687 31.9226V39.9039H143.668V31.9226H135.687Z" fill="#000000" fill-opacity="0.85"/>
<path d="M135.687 23.9399V31.9226H143.668V23.9399H135.687Z" fill="#000000" fill-opacity="0.85"/>
<path d="M135.687 15.9639V23.9399H143.668V15.9639H135.687Z" fill="#000000" fill-opacity="0.85"/>
<path d="M135.687 7.98134V15.964H143.668V7.98134H135.687Z" fill="#000000" fill-opacity="0.85"/>
<path d="M143.668 47.8853V55.8679H151.651V47.8853H143.668Z" fill="#000000" fill-opacity="0.85"/>
<path d="M143.668 39.904V47.8854H151.651V39.904H143.668Z" fill="#000000" fill-opacity="0.85"/>
<path d="M143.668 31.9226V39.9039H151.651V31.9226H143.668Z" fill="#000000" fill-opacity="0.85"/>
<path d="M143.668 23.9399V31.9226H151.651V23.9399H143.668Z" fill="#000000" fill-opacity="0.85"/>
<path d="M143.668 15.9639V23.9399H151.651V15.9639H143.668Z" fill="#000000" fill-opacity="0.85"/>
<path d="M143.668 7.98134V15.964H151.651V7.98134H143.668Z" fill="#000000" fill-opacity="0.85"/>
<path d="M151.651 47.8853V55.8679H159.632V47.8853H151.651Z" fill="#000000" fill-opacity="0.85"/>
<path d="M151.651 39.904V47.8854H159.632V39.904H151.651Z" fill="#000000" fill-opacity="0.85"/>
<path d="M151.651 31.9226V39.9039H159.632V31.9226H151.651Z" fill="#000000" fill-opacity="0.85"/>
<path d="M151.651 23.9399V31.9226H159.632V23.9399H151.651Z" fill="#000000" fill-opacity="0.85"/>
<path d="M151.651 15.9639V23.9399H159.632V15.9639H151.651Z" fill="#000000" fill-opacity="0.85"/>
<path d="M151.651 7.98134V15.964H159.632V7.98134H151.651Z" fill="#000000" fill-opacity="0.85"/>
<path d="M159.632 39.904V47.8854H167.609V39.904H159.632Z" fill="#000000" fill-opacity="0.85"/>
<path d="M159.632 31.9226V39.9039H167.609V31.9226H159.632Z" fill="#000000" fill-opacity="0.85"/>
<path d="M159.632 23.9399V31.9226H167.609V23.9399H159.632Z" fill="#000000" fill-opacity="0.85"/>
<path d="M159.632 15.9639V23.9399H167.609V15.9639H159.632Z" fill="#000000" fill-opacity="0.85"/>
<path d="M159.632 7.98134V15.964H167.609V7.98134H159.632Z" fill="#000000" fill-opacity="0.85"/>
<path d="M167.609 39.904V47.8854H175.591V39.904H167.609Z" fill="#000000" fill-opacity="0.85"/>
<path d="M167.609 31.9226V39.9039H175.591V31.9226H167.609Z" fill="#000000" fill-opacity="0.85"/>
<path d="M167.609 23.9399V31.9226H175.591V23.9399H167.609Z" fill="white"/>
<path d="M167.609 15.9639V23.9399H175.591V15.9639H167.609Z" fill="#000000" fill-opacity="0.85"/>
<path d="M167.609 7.98134V15.964H175.591V7.98134H167.609Z" fill="#000000" fill-opacity="0.85"/>
<path d="M175.591 31.9226V39.9039H183.572V31.9226H175.591Z" fill="#000000" fill-opacity="0.85"/>
<path d="M175.591 23.9399V31.9226H183.572V23.9399H175.591Z" fill="#000000" fill-opacity="0.85"/>
<path d="M175.591 15.9639V23.9399H183.572V15.9639H175.591Z" fill="white"/>
<path d="M175.591 7.98134V15.964H183.572V7.98134H175.591Z" fill="#000000" fill-opacity="0.85"/>
<path d="M183.572 23.9399V31.9226H191.555V23.9399H183.572Z" fill="#000000" fill-opacity="0.85"/>
<path d="M183.572 15.9639V23.9399H191.555V15.9639H183.572Z" fill="#000000" fill-opacity="0.85"/>
<path d="M183.572 7.98134V15.964H191.555V7.98134H183.572Z" fill="#000000" fill-opacity="0.85"/>
<path d="M191.555 7.98134V15.964H199.536V7.98134H191.555Z" fill="#000000" fill-opacity="0.85"/>
<path d="M199.536 -2.39383e-05V7.98132H207.519V-2.39383e-05H199.536Z" fill="#000000" fill-opacity="0.85"/>
<path d="M207.519 -2.39383e-05V7.98132H215.5V-2.39383e-05H207.519Z" fill="#000000" fill-opacity="0.85"/>
<path d="M215.5 -2.39383e-05V7.98132H223.482V-2.39383e-05H215.5Z" fill="#000000" fill-opacity="0.85"/>
<path d="M223.481 -2.39383e-05V7.98132H231.464V-2.39383e-05H223.481Z" fill="#000000" fill-opacity="0.85"/>
<path d="M231.464 -2.39383e-05V7.98132H239.445V-2.39383e-05H231.464Z" fill="#000000" fill-opacity="0.85"/>
<path d="M231.464 7.98134V15.964H239.445V7.98134H231.464Z" fill="#000000" fill-opacity="0.85"/>
<path d="M239.446 7.98134V15.964H247.427V7.98134H239.446Z" fill="#000000" fill-opacity="0.85"/>
<path d="M239.446 15.9626V23.944H247.427V15.9626H239.446Z" fill="#000000" fill-opacity="0.85"/>
</svg>
