<svg width="200" height="64" viewBox="0 0 200 64" fill="none" xmlns="http://www.w3.org/2000/svg">
<path d="M199.525 39.9041V47.8864H191.544V39.9041H199.525Z" fill="#000000" fill-opacity="0.85"/>
<path d="M199.525 31.9224V39.9042H191.544V31.9224H199.525Z" fill="#000000" fill-opacity="0.85"/>
<path d="M199.525 23.9453V31.9224H191.544V23.9453H199.525Z" fill="#000000" fill-opacity="0.85"/>
<path d="M199.525 15.964V23.9453H191.544V15.964H199.525Z" fill="#000000" fill-opacity="0.85"/>
<path d="M199.525 7.98266V15.964H191.544V7.98266H199.525Z" fill="#000000" fill-opacity="0.85"/>
<path d="M191.544 47.8863V55.8677H183.562V47.8863H191.544Z" fill="#000000" fill-opacity="0.85"/>
<path d="M191.544 39.9041V47.8864H183.562V39.9041H191.544Z" fill="#000000" fill-opacity="0.85"/>
<path d="M191.544 31.9224V39.9042H183.562V31.9224H191.544Z" fill="#000000" fill-opacity="0.85"/>
<path d="M191.544 23.9453V31.9224H183.562V23.9453H191.544Z" fill="#000000" fill-opacity="0.85"/>
<path d="M191.544 15.964V23.9453H183.562V15.964H191.544Z" fill="#000000" fill-opacity="0.85"/>
<path d="M191.544 7.98266V15.964H183.562V7.98266H191.544Z" fill="#000000" fill-opacity="0.85"/>
<path d="M191.544 -4.16328e-07V7.98267H183.562V-4.16328e-07H191.544Z" fill="#000000" fill-opacity="0.85"/>
<path d="M183.563 47.8863V55.8677H175.58V47.8863H183.563Z" fill="#000000" fill-opacity="0.85"/>
<path d="M183.563 39.9041V47.8864H175.58V39.9041H183.563Z" fill="#000000" fill-opacity="0.85"/>
<path d="M183.563 31.9224V39.9042H175.58V31.9224H183.563Z" fill="#000000" fill-opacity="0.85"/>
<path d="M183.563 23.9453V31.9224H175.58V23.9453H183.563Z" fill="#000000" fill-opacity="0.85"/>
<path d="M183.563 15.964V23.9453H175.58V15.964H183.563Z" fill="#000000" fill-opacity="0.85"/>
<path d="M183.563 7.98266V15.964H175.58V7.98266H183.563Z" fill="#000000" fill-opacity="0.85"/>
<path d="M183.563 -4.16328e-07V7.98267H175.58V-4.16328e-07H183.563Z" fill="#000000" fill-opacity="0.85"/>
<path d="M175.58 55.8678V63.8495H167.599V55.8678H175.58Z" fill="#000000" fill-opacity="0.85"/>
<path d="M175.58 47.8863V55.8677H167.599V47.8863H175.58Z" fill="#000000" fill-opacity="0.85"/>
<path d="M175.58 39.9041V47.8864H167.599V39.9041H175.58Z" fill="#000000" fill-opacity="0.85"/>
<path d="M175.58 31.9224V39.9042H167.599V31.9224H175.58Z" fill="#000000" fill-opacity="0.85"/>
<path d="M175.58 23.9453V31.9224H167.599V23.9453H175.58Z" fill="#000000" fill-opacity="0.85"/>
<path d="M175.58 15.964V23.9453H167.599V15.964H175.58Z" fill="#000000" fill-opacity="0.85"/>
<path d="M175.58 7.98266V15.964H167.599V7.98266H175.58Z" fill="#000000" fill-opacity="0.85"/>
<path d="M175.58 -4.16328e-07V7.98267H167.599V-4.16328e-07H175.58Z" fill="#000000" fill-opacity="0.85"/>
<path d="M167.599 55.8678V63.8495H159.617V55.8678H167.599Z" fill="#000000" fill-opacity="0.85"/>
<path d="M167.599 47.8863V55.8677H159.617V47.8863H167.599Z" fill="#000000" fill-opacity="0.85"/>
<path d="M167.599 39.9041V47.8864H159.617V39.9041H167.599Z" fill="#000000" fill-opacity="0.85"/>
<path d="M167.599 31.9224V39.9042H159.617V31.9224H167.599Z" fill="#000000" fill-opacity="0.85"/>
<path d="M167.599 23.9453V31.9224H159.617V23.9453H167.599Z" fill="#000000" fill-opacity="0.85"/>
<path d="M167.599 15.964V23.9453H159.617V15.964H167.599Z" fill="#000000" fill-opacity="0.85"/>
<path d="M167.599 7.98266V15.964H159.617V7.98266H167.599Z" fill="#000000" fill-opacity="0.85"/>
<path d="M167.599 -4.16328e-07V7.98267H159.617V-4.16328e-07H167.599Z" fill="#000000" fill-opacity="0.85"/>
<path d="M159.617 55.8678V63.8495H151.635V55.8678H159.617Z" fill="#000000" fill-opacity="0.85"/>
<path d="M159.617 47.8863V55.8677H151.635V47.8863H159.617Z" fill="#000000" fill-opacity="0.85"/>
<path d="M159.617 39.9041V47.8864H151.635V39.9041H159.617Z" fill="#000000" fill-opacity="0.85"/>
<path d="M159.617 31.9224V39.9042H151.635V31.9224H159.617Z" fill="#000000" fill-opacity="0.85"/>
<path d="M159.617 23.9453V31.9224H151.635V23.9453H159.617Z" fill="#000000" fill-opacity="0.85"/>
<path d="M159.617 15.964V23.9453H151.635V15.964H159.617Z" fill="#000000" fill-opacity="0.85"/>
<path d="M159.617 7.98266V15.964H151.635V7.98266H159.617Z" fill="#000000" fill-opacity="0.85"/>
<path d="M159.617 -4.16328e-07V7.98267H151.635V-4.16328e-07H159.617Z" fill="#000000" fill-opacity="0.85"/>
<path d="M151.635 55.8678V63.8495H143.653V55.8678H151.635Z" fill="#000000" fill-opacity="0.85"/>
<path d="M151.635 47.8863V55.8677H143.653V47.8863H151.635Z" fill="#000000" fill-opacity="0.85"/>
<path d="M151.635 39.9041V47.8864H143.653V39.9041H151.635Z" fill="#000000" fill-opacity="0.85"/>
<path d="M151.635 31.9224V39.9042H143.653V31.9224H151.635Z" fill="#000000" fill-opacity="0.85"/>
<path d="M151.635 23.9453V31.9224H143.653V23.9453H151.635Z" fill="#000000" fill-opacity="0.85"/>
<path d="M151.635 15.964V23.9453H143.653V15.964H151.635Z" fill="#000000" fill-opacity="0.85"/>
<path d="M151.635 7.98266V15.964H143.653V7.98266H151.635Z" fill="#000000" fill-opacity="0.85"/>
<path d="M151.635 -4.16328e-07V7.98267H143.653V-4.16328e-07H151.635Z" fill="#000000" fill-opacity="0.85"/>
<path d="M143.653 55.8678V63.8495H135.671V55.8678H143.653Z" fill="#000000" fill-opacity="0.85"/>
<path d="M143.653 47.8863V55.8677H135.671V47.8863H143.653Z" fill="#000000" fill-opacity="0.85"/>
<path d="M143.653 39.9041V47.8864H135.671V39.9041H143.653Z" fill="white"/>
<path d="M143.653 31.9224V39.9042H135.671V31.9224H143.653Z" fill="#000000" fill-opacity="0.85"/>
<path d="M143.653 23.9453V31.9224H135.671V23.9453H143.653Z" fill="white"/>
<path d="M143.653 15.964V23.9453H135.671V15.964H143.653Z" fill="#000000" fill-opacity="0.85"/>
<path d="M143.653 7.98266V15.964H135.671V7.98266H143.653Z" fill="#000000" fill-opacity="0.85"/>
<path d="M143.653 -4.16328e-07V7.98267H135.671V-4.16328e-07H143.653Z" fill="#000000" fill-opacity="0.85"/>
<path d="M135.671 47.8863V55.8677H127.695V47.8863H135.671Z" fill="#000000" fill-opacity="0.85"/>
<path d="M135.671 39.9041V47.8864H127.695V39.9041H135.671Z" fill="#000000" fill-opacity="0.85"/>
<path d="M135.671 31.9224V39.9042H127.695V31.9224H135.671Z" fill="white"/>
<path d="M135.671 23.9453V31.9224H127.695V23.9453H135.671Z" fill="#000000" fill-opacity="0.85"/>
<path d="M135.671 15.964V23.9453H127.695V15.964H135.671Z" fill="white"/>
<path d="M135.671 7.98266V15.964H127.695V7.98266H135.671Z" fill="#000000" fill-opacity="0.85"/>
<path d="M135.671 -4.16328e-07V7.98267H127.695V-4.16328e-07H135.671Z" fill="#000000" fill-opacity="0.85"/>
<path d="M127.695 47.8863V55.8677H119.712V47.8863H127.695Z" fill="#000000" fill-opacity="0.85"/>
<path d="M127.695 39.9041V47.8864H119.712V39.9041H127.695Z" fill="#000000" fill-opacity="0.85"/>
<path d="M127.695 31.9224V39.9042H119.712V31.9224H127.695Z" fill="#000000" fill-opacity="0.85"/>
<path d="M127.695 23.9453V31.9224H119.712V23.9453H127.695Z" fill="white"/>
<path d="M127.695 15.964V23.9453H119.712V15.964H127.695Z" fill="#000000" fill-opacity="0.85"/>
<path d="M127.695 7.98266V15.964H119.712V7.98266H127.695Z" fill="white"/>
<path d="M127.695 -4.16328e-07V7.98267H119.712V-4.16328e-07H127.695Z" fill="#000000" fill-opacity="0.85"/>
<path d="M119.712 39.9041V47.8864H111.731V39.9041H119.712Z" fill="#000000" fill-opacity="0.85"/>
<path d="M119.712 31.9224V39.9042H111.731V31.9224H119.712Z" fill="#000000" fill-opacity="0.85"/>
<path d="M119.712 23.9453V31.9224H111.731V23.9453H119.712Z" fill="#000000" fill-opacity="0.85"/>
<path d="M119.712 15.964V23.9453H111.731V15.964H119.712Z" fill="#000000" fill-opacity="0.85"/>
<path d="M111.731 23.9453V31.9224H103.749V23.9453H111.731Z" fill="#000000" fill-opacity="0.85"/>
<path d="M111.731 15.964V23.9453H103.749V15.964H111.731Z" fill="#000000" fill-opacity="0.85"/>
<path d="M95.7665 23.9453V31.9224H87.7852V23.9453H95.7665Z" fill="#000000" fill-opacity="0.85"/>
<path d="M95.7665 15.964V23.9453H87.7852V15.964H95.7665Z" fill="#000000" fill-opacity="0.85"/>
<path d="M103.749 15.964V23.9453H95.7666V15.964H103.749Z" fill="#000000" fill-opacity="0.85"/>
<path d="M103.749 7.98266V15.964H95.7666V7.98266H103.749Z" fill="#000000" fill-opacity="0.85"/>
<path d="M119.712 7.98266V15.964H111.731V7.98266H119.712Z" fill="#000000" fill-opacity="0.85"/>
<path d="M87.7946 39.9041V47.8864H79.8132V39.9041H87.7946Z" fill="#000000" fill-opacity="0.85"/>
<path d="M87.7946 31.9224V39.9042H79.8132V31.9224H87.7946Z" fill="#000000" fill-opacity="0.85"/>
<path d="M87.7946 23.9453V31.9224H79.8132V23.9453H87.7946Z" fill="#000000" fill-opacity="0.85"/>
<path d="M87.7946 15.964V23.9453H79.8132V15.964H87.7946Z" fill="#000000" fill-opacity="0.85"/>
<path d="M87.7946 7.98266V15.964H79.8132V7.98266H87.7946Z" fill="#000000" fill-opacity="0.85"/>
<path d="M79.8133 47.8863V55.8677H71.832V47.8863H79.8133Z" fill="#000000" fill-opacity="0.85"/>
<path d="M79.8133 39.9041V47.8864H71.832V39.9041H79.8133Z" fill="#000000" fill-opacity="0.85"/>
<path d="M79.8133 31.9224V39.9042H71.832V31.9224H79.8133Z" fill="#000000" fill-opacity="0.85"/>
<path d="M79.8133 23.9453V31.9224H71.832V23.9453H79.8133Z" fill="#000000" fill-opacity="0.85"/>
<path d="M79.8133 15.964V23.9453H71.832V15.964H79.8133Z" fill="#000000" fill-opacity="0.85"/>
<path d="M79.8133 7.98266V15.964H71.832V7.98266H79.8133Z" fill="#000000" fill-opacity="0.85"/>
<path d="M79.8133 -4.16328e-07V7.98267H71.832V-4.16328e-07H79.8133Z" fill="#000000" fill-opacity="0.85"/>
<path d="M71.832 47.8863V55.8677H63.8494V47.8863H71.832Z" fill="#000000" fill-opacity="0.85"/>
<path d="M71.832 39.9041V47.8864H63.8494V39.9041H71.832Z" fill="#000000" fill-opacity="0.85"/>
<path d="M71.832 31.9224V39.9042H63.8494V31.9224H71.832Z" fill="#000000" fill-opacity="0.85"/>
<path d="M71.832 23.9453V31.9224H63.8494V23.9453H71.832Z" fill="#000000" fill-opacity="0.85"/>
<path d="M71.832 15.964V23.9453H63.8494V15.964H71.832Z" fill="#000000" fill-opacity="0.85"/>
<path d="M71.832 7.98266V15.964H63.8494V7.98266H71.832Z" fill="#000000" fill-opacity="0.85"/>
<path d="M71.832 -4.16328e-07V7.98267H63.8494V-4.16328e-07H71.832Z" fill="#000000" fill-opacity="0.85"/>
<path d="M63.8492 55.8678V63.8495H55.8679V55.8678H63.8492Z" fill="#000000" fill-opacity="0.85"/>
<path d="M63.8492 47.8863V55.8677H55.8679V47.8863H63.8492Z" fill="#000000" fill-opacity="0.85"/>
<path d="M63.8492 39.9041V47.8864H55.8679V39.9041H63.8492Z" fill="#000000" fill-opacity="0.85"/>
<path d="M63.8492 31.9224V39.9042H55.8679V31.9224H63.8492Z" fill="#000000" fill-opacity="0.85"/>
<path d="M63.8492 23.9453V31.9224H55.8679V23.9453H63.8492Z" fill="#000000" fill-opacity="0.85"/>
<path d="M63.8492 15.964V23.9453H55.8679V15.964H63.8492Z" fill="#000000" fill-opacity="0.85"/>
<path d="M63.8492 7.98266V15.964H55.8679V7.98266H63.8492Z" fill="#000000" fill-opacity="0.85"/>
<path d="M63.8492 -4.16328e-07V7.98267H55.8679V-4.16328e-07H63.8492Z" fill="#000000" fill-opacity="0.85"/>
<path d="M55.8681 55.8678V63.8495H47.8867V55.8678H55.8681Z" fill="#000000" fill-opacity="0.85"/>
<path d="M55.8681 47.8863V55.8677H47.8867V47.8863H55.8681Z" fill="#000000" fill-opacity="0.85"/>
<path d="M55.8681 39.9041V47.8864H47.8867V39.9041H55.8681Z" fill="#000000" fill-opacity="0.85"/>
<path d="M55.8681 31.9224V39.9042H47.8867V31.9224H55.8681Z" fill="#000000" fill-opacity="0.85"/>
<path d="M55.8681 23.9453V31.9224H47.8867V23.9453H55.8681Z" fill="#000000" fill-opacity="0.85"/>
<path d="M55.8681 15.964V23.9453H47.8867V15.964H55.8681Z" fill="#000000" fill-opacity="0.85"/>
<path d="M55.8681 7.98266V15.964H47.8867V7.98266H55.8681Z" fill="#000000" fill-opacity="0.85"/>
<path d="M55.8681 -4.16328e-07V7.98267H47.8867V-4.16328e-07H55.8681Z" fill="#000000" fill-opacity="0.85"/>
<path d="M47.8867 55.8678V63.8495H39.9041V55.8678H47.8867Z" fill="#000000" fill-opacity="0.85"/>
<path d="M47.8867 47.8863V55.8677H39.9041V47.8863H47.8867Z" fill="#000000" fill-opacity="0.85"/>
<path d="M47.8867 39.9041V47.8864H39.9041V39.9041H47.8867Z" fill="#000000" fill-opacity="0.85"/>
<path d="M47.8867 31.9224V39.9042H39.9041V31.9224H47.8867Z" fill="#000000" fill-opacity="0.85"/>
<path d="M47.8867 23.9453V31.9224H39.9041V23.9453H47.8867Z" fill="#000000" fill-opacity="0.85"/>
<path d="M47.8867 15.964V23.9453H39.9041V15.964H47.8867Z" fill="#000000" fill-opacity="0.85"/>
<path d="M47.8867 7.98266V15.964H39.9041V7.98266H47.8867Z" fill="#000000" fill-opacity="0.85"/>
<path d="M47.8867 -4.16328e-07V7.98267H39.9041V-4.16328e-07H47.8867Z" fill="#000000" fill-opacity="0.85"/>
<path d="M39.904 55.8678V63.8495H31.9226V55.8678H39.904Z" fill="#000000" fill-opacity="0.85"/>
<path d="M39.904 47.8863V55.8677H31.9226V47.8863H39.904Z" fill="#000000" fill-opacity="0.85"/>
<path d="M39.904 39.9041V47.8864H31.9226V39.9041H39.904Z" fill="#000000" fill-opacity="0.85"/>
<path d="M39.904 31.9224V39.9042H31.9226V31.9224H39.904Z" fill="#000000" fill-opacity="0.85"/>
<path d="M39.904 23.9453V31.9224H31.9226V23.9453H39.904Z" fill="#000000" fill-opacity="0.85"/>
<path d="M39.904 15.964V23.9453H31.9226V15.964H39.904Z" fill="#000000" fill-opacity="0.85"/>
<path d="M39.904 7.98266V15.964H31.9226V7.98266H39.904Z" fill="#000000" fill-opacity="0.85"/>
<path d="M39.904 -4.16328e-07V7.98267H31.9226V-4.16328e-07H39.904Z" fill="#000000" fill-opacity="0.85"/>
<path d="M31.9227 55.8678V63.8495H23.9414V55.8678H31.9227Z" fill="#000000" fill-opacity="0.85"/>
<path d="M31.9227 47.8863V55.8677H23.9414V47.8863H31.9227Z" fill="#000000" fill-opacity="0.85"/>
<path d="M31.9227 39.9041V47.8864H23.9414V39.9041H31.9227Z" fill="white"/>
<path d="M31.9227 31.9224V39.9042H23.9414V31.9224H31.9227Z" fill="#000000" fill-opacity="0.85"/>
<path d="M31.9227 23.9453V31.9224H23.9414V23.9453H31.9227Z" fill="white"/>
<path d="M31.9227 15.964V23.9453H23.9414V15.964H31.9227Z" fill="#000000" fill-opacity="0.85"/>
<path d="M31.9227 7.98266V15.964H23.9414V7.98266H31.9227Z" fill="#000000" fill-opacity="0.85"/>
<path d="M31.9227 -4.16328e-07V7.98267H23.9414V-4.16328e-07H31.9227Z" fill="#000000" fill-opacity="0.85"/>
<path d="M23.9412 47.8863V55.8677H15.9639V47.8863H23.9412Z" fill="#000000" fill-opacity="0.85"/>
<path d="M23.9412 39.9041V47.8864H15.9639V39.9041H23.9412Z" fill="#000000" fill-opacity="0.85"/>
<path d="M23.9412 31.9224V39.9042H15.9639V31.9224H23.9412Z" fill="white"/>
<path d="M23.9412 23.9453V31.9224H15.9639V23.9453H23.9412Z" fill="#000000" fill-opacity="0.85"/>
<path d="M23.9412 15.964V23.9453H15.9639V15.964H23.9412Z" fill="white"/>
<path d="M23.9412 7.98266V15.964H15.9639V7.98266H23.9412Z" fill="#000000" fill-opacity="0.85"/>
<path d="M23.9412 -4.16328e-07V7.98267H15.9639V-4.16328e-07H23.9412Z" fill="#000000" fill-opacity="0.85"/>
<path d="M15.9639 47.8863V55.8677H7.9812V47.8863H15.9639Z" fill="#000000" fill-opacity="0.85"/>
<path d="M15.9639 39.9041V47.8864H7.9812V39.9041H15.9639Z" fill="#000000" fill-opacity="0.85"/>
<path d="M15.9639 31.9224V39.9042H7.9812V31.9224H15.9639Z" fill="#000000" fill-opacity="0.85"/>
<path d="M15.9639 23.9453V31.9224H7.9812V23.9453H15.9639Z" fill="white"/>
<path d="M15.9639 15.964V23.9453H7.9812V15.964H15.9639Z" fill="#000000" fill-opacity="0.85"/>
<path d="M15.9639 7.98266V15.964H7.9812V7.98266H15.9639Z" fill="white"/>
<path d="M15.9639 -4.16328e-07V7.98267H7.9812V-4.16328e-07H15.9639Z" fill="#000000" fill-opacity="0.85"/>
<path d="M7.98132 39.9041V47.8864H0V39.9041H7.98132Z" fill="#000000" fill-opacity="0.85"/>
<path d="M7.98132 31.9224V39.9042H0V31.9224H7.98132Z" fill="#000000" fill-opacity="0.85"/>
<path d="M7.98132 23.9453V31.9224H0V23.9453H7.98132Z" fill="#000000" fill-opacity="0.85"/>
<path d="M7.98132 15.964V23.9453H0V15.964H7.98132Z" fill="#000000" fill-opacity="0.85"/>
<path d="M7.98132 7.98266V15.964H0V7.98266H7.98132Z" fill="#000000" fill-opacity="0.85"/>
</svg>
