<svg width="248" height="64" viewBox="0 0 248 64" fill="none" xmlns="http://www.w3.org/2000/svg">
<path d="M247.419 23.9454V31.9227H239.438V23.9454H247.419Z" fill="#000000" fill-opacity="0.85"/>
<path d="M247.419 15.9641V23.9454H239.438V15.9641H247.419Z" fill="#000000" fill-opacity="0.85"/>
<path d="M239.437 31.9227V39.9041H231.456V31.9227H239.437Z" fill="#000000" fill-opacity="0.85"/>
<path d="M239.437 23.9454V31.9227H231.456V23.9454H239.437Z" fill="#000000" fill-opacity="0.85"/>
<path d="M239.437 15.9641V23.9454H231.456V15.9641H239.437Z" fill="#000000" fill-opacity="0.85"/>
<path d="M239.437 7.98273V15.9641H231.456V7.98273H239.437Z" fill="#000000" fill-opacity="0.85"/>
<path d="M231.456 39.904V47.8867H223.473V39.904H231.456Z" fill="#000000" fill-opacity="0.85"/>
<path d="M231.456 31.9227V39.9041H223.473V31.9227H231.456Z" fill="#000000" fill-opacity="0.85"/>
<path d="M231.456 23.9454V31.9227H223.473V23.9454H231.456Z" fill="#000000" fill-opacity="0.85"/>
<path d="M231.456 15.9641V23.9454H223.473V15.9641H231.456Z" fill="#000000" fill-opacity="0.85"/>
<path d="M231.456 7.98273V15.9641H223.473V7.98273H231.456Z" fill="#000000" fill-opacity="0.85"/>
<path d="M231.456 4.93039e-05V7.98267H223.473V4.93039e-05H231.456Z" fill="#000000" fill-opacity="0.85"/>
<path d="M223.474 47.8867V55.868H215.492V47.8867H223.474Z" fill="#000000" fill-opacity="0.85"/>
<path d="M223.474 39.904V47.8867H215.492V39.904H223.474Z" fill="#000000" fill-opacity="0.85"/>
<path d="M223.474 31.9227V39.9041H215.492V31.9227H223.474Z" fill="#000000" fill-opacity="0.85"/>
<path d="M223.474 23.9454V31.9227H215.492V23.9454H223.474Z" fill="#000000" fill-opacity="0.85"/>
<path d="M223.474 15.9641V23.9454H215.492V15.9641H223.474Z" fill="#000000" fill-opacity="0.85"/>
<path d="M223.474 7.98273V15.9641H215.492V7.98273H223.474Z" fill="#000000" fill-opacity="0.85"/>
<path d="M223.474 4.93039e-05V7.98267H215.492V4.93039e-05H223.474Z" fill="#000000" fill-opacity="0.85"/>
<path d="M215.492 47.8867V55.868H207.511V47.8867H215.492Z" fill="#000000" fill-opacity="0.85"/>
<path d="M215.492 39.904V47.8867H207.511V39.904H215.492Z" fill="#000000" fill-opacity="0.85"/>
<path d="M215.492 31.9227V39.9041H207.511V31.9227H215.492Z" fill="#000000" fill-opacity="0.85"/>
<path d="M215.492 23.9454V31.9227H207.511V23.9454H215.492Z" fill="#000000" fill-opacity="0.85"/>
<path d="M215.492 15.9641V23.9454H207.511V15.9641H215.492Z" fill="#000000" fill-opacity="0.85"/>
<path d="M215.492 7.98273V15.9641H207.511V7.98273H215.492Z" fill="#000000" fill-opacity="0.85"/>
<path d="M215.492 4.93039e-05V7.98267H207.511V4.93039e-05H215.492Z" fill="#000000" fill-opacity="0.85"/>
<path d="M207.511 55.868V63.8494H199.528V55.868H207.511Z" fill="#000000" fill-opacity="0.85"/>
<path d="M207.511 47.8867V55.868H199.528V47.8867H207.511Z" fill="#000000" fill-opacity="0.85"/>
<path d="M207.511 39.904V47.8867H199.528V39.904H207.511Z" fill="#000000" fill-opacity="0.85"/>
<path d="M207.511 31.9227V39.9041H199.528V31.9227H207.511Z" fill="#000000" fill-opacity="0.85"/>
<path d="M207.511 23.9454V31.9227H199.528V23.9454H207.511Z" fill="#000000" fill-opacity="0.85"/>
<path d="M207.511 15.9641V23.9454H199.528V15.9641H207.511Z" fill="#000000" fill-opacity="0.85"/>
<path d="M207.511 7.98273V15.9641H199.528V7.98273H207.511Z" fill="#000000" fill-opacity="0.85"/>
<path d="M207.511 4.93039e-05V7.98267H199.528V4.93039e-05H207.511Z" fill="#000000" fill-opacity="0.85"/>
<path d="M199.528 55.868V63.8494H191.547V55.868H199.528Z" fill="#000000" fill-opacity="0.85"/>
<path d="M199.528 47.8867V55.868H191.547V47.8867H199.528Z" fill="#000000" fill-opacity="0.85"/>
<path d="M199.528 39.904V47.8867H191.547V39.904H199.528Z" fill="#000000" fill-opacity="0.85"/>
<path d="M199.528 31.9227V39.9041H191.547V31.9227H199.528Z" fill="#000000" fill-opacity="0.85"/>
<path d="M199.528 23.9454V31.9227H191.547V23.9454H199.528Z" fill="#000000" fill-opacity="0.85"/>
<path d="M199.528 15.9641V23.9454H191.547V15.9641H199.528Z" fill="#000000" fill-opacity="0.85"/>
<path d="M199.528 7.98273V15.9641H191.547V7.98273H199.528Z" fill="#000000" fill-opacity="0.85"/>
<path d="M199.528 4.93039e-05V7.98267H191.547V4.93039e-05H199.528Z" fill="#000000" fill-opacity="0.85"/>
<path d="M191.547 55.868V63.8494H183.564V55.868H191.547Z" fill="#000000" fill-opacity="0.85"/>
<path d="M191.547 47.8867V55.868H183.564V47.8867H191.547Z" fill="#000000" fill-opacity="0.85"/>
<path d="M191.547 39.904V47.8867H183.564V39.904H191.547Z" fill="#000000" fill-opacity="0.85"/>
<path d="M191.547 31.9227V39.9041H183.564V31.9227H191.547Z" fill="#000000" fill-opacity="0.85"/>
<path d="M191.547 23.9454V31.9227H183.564V23.9454H191.547Z" fill="#000000" fill-opacity="0.85"/>
<path d="M191.547 15.9641V23.9454H183.564V15.9641H191.547Z" fill="#000000" fill-opacity="0.85"/>
<path d="M191.547 7.98273V15.9641H183.564V7.98273H191.547Z" fill="#000000" fill-opacity="0.85"/>
<path d="M191.547 4.93039e-05V7.98267H183.564V4.93039e-05H191.547Z" fill="#000000" fill-opacity="0.85"/>
<path d="M183.564 55.868V63.8494H175.583V55.868H183.564Z" fill="#000000" fill-opacity="0.85"/>
<path d="M183.564 47.8867V55.868H175.583V47.8867H183.564Z" fill="#000000" fill-opacity="0.85"/>
<path d="M183.564 39.904V47.8867H175.583V39.904H183.564Z" fill="#000000" fill-opacity="0.85"/>
<path d="M183.564 31.9227V39.9041H175.583V31.9227H183.564Z" fill="#000000" fill-opacity="0.85"/>
<path d="M183.564 23.9454V31.9227H175.583V23.9454H183.564Z" fill="#000000" fill-opacity="0.85"/>
<path d="M183.564 15.9641V23.9454H175.583V15.9641H183.564Z" fill="#000000" fill-opacity="0.85"/>
<path d="M183.564 7.98273V15.9641H175.583V7.98273H183.564Z" fill="#000000" fill-opacity="0.85"/>
<path d="M183.564 4.93039e-05V7.98267H175.583V4.93039e-05H183.564Z" fill="#000000" fill-opacity="0.85"/>
<path d="M175.583 55.868V63.8494H167.601V55.868H175.583Z" fill="#000000" fill-opacity="0.85"/>
<path d="M175.583 47.8867V55.868H167.601V47.8867H175.583Z" fill="#000000" fill-opacity="0.85"/>
<path d="M175.583 39.904V47.8867H167.601V39.904H175.583Z" fill="white"/>
<path d="M175.583 31.9227V39.9041H167.601V31.9227H175.583Z" fill="#000000" fill-opacity="0.85"/>
<path d="M175.583 23.9454V31.9227H167.601V23.9454H175.583Z" fill="white"/>
<path d="M175.583 15.9641V23.9454H167.601V15.9641H175.583Z" fill="#000000" fill-opacity="0.85"/>
<path d="M175.583 7.98273V15.9641H167.601V7.98273H175.583Z" fill="#000000" fill-opacity="0.85"/>
<path d="M175.583 4.93039e-05V7.98267H167.601V4.93039e-05H175.583Z" fill="#000000" fill-opacity="0.85"/>
<path d="M167.601 47.8867V55.868H159.624V47.8867H167.601Z" fill="#000000" fill-opacity="0.85"/>
<path d="M167.601 39.904V47.8867H159.624V39.904H167.601Z" fill="#000000" fill-opacity="0.85"/>
<path d="M167.601 31.9227V39.9041H159.624V31.9227H167.601Z" fill="white"/>
<path d="M167.601 23.9454V31.9227H159.624V23.9454H167.601Z" fill="#000000" fill-opacity="0.85"/>
<path d="M167.601 15.9641V23.9454H159.624V15.9641H167.601Z" fill="white"/>
<path d="M167.601 7.98273V15.9641H159.624V7.98273H167.601Z" fill="#000000" fill-opacity="0.85"/>
<path d="M167.601 4.93039e-05V7.98267H159.624V4.93039e-05H167.601Z" fill="#000000" fill-opacity="0.85"/>
<path d="M159.624 47.8867V55.868H151.643V47.8867H159.624Z" fill="#000000" fill-opacity="0.85"/>
<path d="M159.624 39.904V47.8867H151.643V39.904H159.624Z" fill="#000000" fill-opacity="0.85"/>
<path d="M159.624 31.9227V39.9041H151.643V31.9227H159.624Z" fill="#000000" fill-opacity="0.85"/>
<path d="M159.624 23.9454V31.9227H151.643V23.9454H159.624Z" fill="white"/>
<path d="M159.624 15.9641V23.9454H151.643V15.9641H159.624Z" fill="#000000" fill-opacity="0.85"/>
<path d="M159.624 7.98273V15.9641H151.643V7.98273H159.624Z" fill="white"/>
<path d="M159.624 4.93039e-05V7.98267H151.643V4.93039e-05H159.624Z" fill="#000000" fill-opacity="0.85"/>
<path d="M151.643 39.904V47.8867H143.66V39.904H151.643Z" fill="#000000" fill-opacity="0.85"/>
<path d="M151.643 31.9227V39.9041H143.66V31.9227H151.643Z" fill="#000000" fill-opacity="0.85"/>
<path d="M151.643 23.9454V31.9227H143.66V23.9454H151.643Z" fill="#000000" fill-opacity="0.85"/>
<path d="M151.643 15.9641V23.9454H143.66V15.9641H151.643Z" fill="white"/>
<path d="M151.643 7.98273V15.9641H143.66V7.98273H151.643Z" fill="#000000" fill-opacity="0.85"/>
<path d="M151.643 4.93039e-05V7.98267H143.66V4.93039e-05H151.643Z" fill="#000000" fill-opacity="0.85"/>
<path d="M143.66 23.9454V31.9227H135.679V23.9454H143.66Z" fill="#000000" fill-opacity="0.85"/>
<path d="M143.66 15.9641V23.9454H135.679V15.9641H143.66Z" fill="#000000" fill-opacity="0.85"/>
<path d="M143.66 7.98273V15.9641H135.679V7.98273H143.66Z" fill="#000000" fill-opacity="0.85"/>
<path d="M0 23.9454V31.9227H7.98135V23.9454H0Z" fill="#000000" fill-opacity="0.85"/>
<path d="M0 15.9641V23.9454H7.98135V15.9641H0Z" fill="#000000" fill-opacity="0.85"/>
<path d="M7.98145 31.9227V39.9041H15.9641V31.9227H7.98145Z" fill="#000000" fill-opacity="0.85"/>
<path d="M7.98145 23.9454V31.9227H15.9641V23.9454H7.98145Z" fill="#000000" fill-opacity="0.85"/>
<path d="M7.98145 15.9641V23.9454H15.9641V15.9641H7.98145Z" fill="white"/>
<path d="M7.98145 7.98273V15.9641H15.9641V7.98273H7.98145Z" fill="#000000" fill-opacity="0.85"/>
<path d="M15.9641 39.904V47.8867H23.9455V39.904H15.9641Z" fill="#000000" fill-opacity="0.85"/>
<path d="M15.9641 31.9227V39.9041H23.9455V31.9227H15.9641Z" fill="#000000" fill-opacity="0.85"/>
<path d="M15.9641 23.9454V31.9227H23.9455V23.9454H15.9641Z" fill="white"/>
<path d="M15.9641 15.9641V23.9454H23.9455V15.9641H15.9641Z" fill="#000000" fill-opacity="0.85"/>
<path d="M15.9641 7.98273V15.9641H23.9455V7.98273H15.9641Z" fill="white"/>
<path d="M15.9641 4.93039e-05V7.98267H23.9455V4.93039e-05H15.9641Z" fill="#000000" fill-opacity="0.85"/>
<path d="M23.9453 47.8867V55.868H31.928V47.8867H23.9453Z" fill="#000000" fill-opacity="0.85"/>
<path d="M23.9453 39.904V47.8867H31.928V39.904H23.9453Z" fill="#000000" fill-opacity="0.85"/>
<path d="M23.9453 31.9227V39.9041H31.928V31.9227H23.9453Z" fill="white"/>
<path d="M23.9453 23.9454V31.9227H31.928V23.9454H23.9453Z" fill="#000000" fill-opacity="0.85"/>
<path d="M23.9453 15.9641V23.9454H31.928V15.9641H23.9453Z" fill="white"/>
<path d="M23.9453 7.98273V15.9641H31.928V7.98273H23.9453Z" fill="#000000" fill-opacity="0.85"/>
<path d="M23.9453 4.93039e-05V7.98267H31.928V4.93039e-05H23.9453Z" fill="#000000" fill-opacity="0.85"/>
<path d="M31.928 47.8867V55.868H39.9093V47.8867H31.928Z" fill="#000000" fill-opacity="0.85"/>
<path d="M31.928 39.904V47.8867H39.9093V39.904H31.928Z" fill="white"/>
<path d="M31.928 31.9227V39.9041H39.9093V31.9227H31.928Z" fill="#000000" fill-opacity="0.85"/>
<path d="M31.928 23.9454V31.9227H39.9093V23.9454H31.928Z" fill="white"/>
<path d="M31.928 15.9641V23.9454H39.9093V15.9641H31.928Z" fill="#000000" fill-opacity="0.85"/>
<path d="M31.928 7.98273V15.9641H39.9093V7.98273H31.928Z" fill="#000000" fill-opacity="0.85"/>
<path d="M31.928 4.93039e-05V7.98267H39.9093V4.93039e-05H31.928Z" fill="#000000" fill-opacity="0.85"/>
<path d="M39.9094 55.868V63.8494H47.8907V55.868H39.9094Z" fill="#000000" fill-opacity="0.85"/>
<path d="M39.9094 47.8867V55.868H47.8907V47.8867H39.9094Z" fill="#000000" fill-opacity="0.85"/>
<path d="M39.9094 39.904V47.8867H47.8907V39.904H39.9094Z" fill="#000000" fill-opacity="0.85"/>
<path d="M39.9094 31.9227V39.9041H47.8907V31.9227H39.9094Z" fill="#000000" fill-opacity="0.85"/>
<path d="M39.9094 23.9454V31.9227H47.8907V23.9454H39.9094Z" fill="#000000" fill-opacity="0.85"/>
<path d="M39.9094 15.9641V23.9454H47.8907V15.9641H39.9094Z" fill="#000000" fill-opacity="0.85"/>
<path d="M39.9094 7.98273V15.9641H47.8907V7.98273H39.9094Z" fill="#000000" fill-opacity="0.85"/>
<path d="M39.9094 4.93039e-05V7.98267H47.8907V4.93039e-05H39.9094Z" fill="#000000" fill-opacity="0.85"/>
<path d="M47.8906 55.868V63.8494H55.8733V55.868H47.8906Z" fill="#000000" fill-opacity="0.85"/>
<path d="M47.8906 47.8867V55.868H55.8733V47.8867H47.8906Z" fill="#000000" fill-opacity="0.85"/>
<path d="M47.8906 39.904V47.8867H55.8733V39.904H47.8906Z" fill="#000000" fill-opacity="0.85"/>
<path d="M47.8906 31.9227V39.9041H55.8733V31.9227H47.8906Z" fill="#000000" fill-opacity="0.85"/>
<path d="M47.8906 23.9454V31.9227H55.8733V23.9454H47.8906Z" fill="#000000" fill-opacity="0.85"/>
<path d="M47.8906 15.9641V23.9454H55.8733V15.9641H47.8906Z" fill="#000000" fill-opacity="0.85"/>
<path d="M47.8906 7.98273V15.9641H55.8733V7.98273H47.8906Z" fill="#000000" fill-opacity="0.85"/>
<path d="M47.8906 4.93039e-05V7.98267H55.8733V4.93039e-05H47.8906Z" fill="#000000" fill-opacity="0.85"/>
<path d="M55.8733 55.868V63.8494H63.8546V55.868H55.8733Z" fill="#000000" fill-opacity="0.85"/>
<path d="M55.8733 47.8867V55.868H63.8546V47.8867H55.8733Z" fill="#000000" fill-opacity="0.85"/>
<path d="M55.8733 39.904V47.8867H63.8546V39.904H55.8733Z" fill="#000000" fill-opacity="0.85"/>
<path d="M55.8733 31.9227V39.9041H63.8546V31.9227H55.8733Z" fill="#000000" fill-opacity="0.85"/>
<path d="M55.8733 23.9454V31.9227H63.8546V23.9454H55.8733Z" fill="#000000" fill-opacity="0.85"/>
<path d="M55.8733 15.9641V23.9454H63.8546V15.9641H55.8733Z" fill="#000000" fill-opacity="0.85"/>
<path d="M55.8733 7.98273V15.9641H63.8546V7.98273H55.8733Z" fill="#000000" fill-opacity="0.85"/>
<path d="M55.8733 4.93039e-05V7.98267H63.8546V4.93039e-05H55.8733Z" fill="#000000" fill-opacity="0.85"/>
<path d="M63.8547 55.868V63.8494H71.8361V55.868H63.8547Z" fill="#000000" fill-opacity="0.85"/>
<path d="M63.8547 47.8867V55.868H71.8361V47.8867H63.8547Z" fill="#000000" fill-opacity="0.85"/>
<path d="M63.8547 39.904V47.8867H71.8361V39.904H63.8547Z" fill="#000000" fill-opacity="0.85"/>
<path d="M63.8547 31.9227V39.9041H71.8361V31.9227H63.8547Z" fill="#000000" fill-opacity="0.85"/>
<path d="M63.8547 23.9454V31.9227H71.8361V23.9454H63.8547Z" fill="#000000" fill-opacity="0.85"/>
<path d="M63.8547 15.9641V23.9454H71.8361V15.9641H63.8547Z" fill="#000000" fill-opacity="0.85"/>
<path d="M63.8547 7.98273V15.9641H71.8361V7.98273H63.8547Z" fill="#000000" fill-opacity="0.85"/>
<path d="M63.8547 4.93039e-05V7.98267H71.8361V4.93039e-05H63.8547Z" fill="#000000" fill-opacity="0.85"/>
<path d="M71.8359 55.868V63.8494H79.8186V55.868H71.8359Z" fill="#000000" fill-opacity="0.85"/>
<path d="M71.8359 47.8867V55.868H79.8186V47.8867H71.8359Z" fill="#000000" fill-opacity="0.85"/>
<path d="M71.8359 39.904V47.8867H79.8186V39.904H71.8359Z" fill="#000000" fill-opacity="0.85"/>
<path d="M71.8359 31.9227V39.9041H79.8186V31.9227H71.8359Z" fill="#000000" fill-opacity="0.85"/>
<path d="M71.8359 23.9454V31.9227H79.8186V23.9454H71.8359Z" fill="#000000" fill-opacity="0.85"/>
<path d="M71.8359 15.9641V23.9454H79.8186V15.9641H71.8359Z" fill="#000000" fill-opacity="0.85"/>
<path d="M71.8359 7.98273V15.9641H79.8186V7.98273H71.8359Z" fill="#000000" fill-opacity="0.85"/>
<path d="M71.8359 4.93039e-05V7.98267H79.8186V4.93039e-05H71.8359Z" fill="#000000" fill-opacity="0.85"/>
<path d="M79.8188 47.8867V55.868H87.7948V47.8867H79.8188Z" fill="#000000" fill-opacity="0.85"/>
<path d="M79.8188 39.904V47.8867H87.7948V39.904H79.8188Z" fill="#000000" fill-opacity="0.85"/>
<path d="M79.8188 31.9227V39.9041H87.7948V31.9227H79.8188Z" fill="#000000" fill-opacity="0.85"/>
<path d="M79.8188 23.9454V31.9227H87.7948V23.9454H79.8188Z" fill="#000000" fill-opacity="0.85"/>
<path d="M79.8188 15.9641V23.9454H87.7948V15.9641H79.8188Z" fill="#000000" fill-opacity="0.85"/>
<path d="M79.8188 7.98273V15.9641H87.7948V7.98273H79.8188Z" fill="#000000" fill-opacity="0.85"/>
<path d="M79.8188 4.93039e-05V7.98267H87.7948V4.93039e-05H79.8188Z" fill="#000000" fill-opacity="0.85"/>
<path d="M87.7947 47.8867V55.868H95.7774V47.8867H87.7947Z" fill="#000000" fill-opacity="0.85"/>
<path d="M87.7947 39.904V47.8867H95.7774V39.904H87.7947Z" fill="#000000" fill-opacity="0.85"/>
<path d="M87.7947 31.9227V39.9041H95.7774V31.9227H87.7947Z" fill="#000000" fill-opacity="0.85"/>
<path d="M87.7947 23.9454V31.9227H95.7774V23.9454H87.7947Z" fill="#000000" fill-opacity="0.85"/>
<path d="M87.7947 15.9641V23.9454H95.7774V15.9641H87.7947Z" fill="#000000" fill-opacity="0.85"/>
<path d="M87.7947 7.98273V15.9641H95.7774V7.98273H87.7947Z" fill="#000000" fill-opacity="0.85"/>
<path d="M87.7947 4.93039e-05V7.98267H95.7774V4.93039e-05H87.7947Z" fill="#000000" fill-opacity="0.85"/>
<path d="M95.7773 39.904V47.8867H103.759V39.904H95.7773Z" fill="#000000" fill-opacity="0.85"/>
<path d="M95.7773 31.9227V39.9041H103.759V31.9227H95.7773Z" fill="#000000" fill-opacity="0.85"/>
<path d="M95.7773 23.9454V31.9227H103.759V23.9454H95.7773Z" fill="#000000" fill-opacity="0.85"/>
<path d="M95.7773 15.9641V23.9454H103.759V15.9641H95.7773Z" fill="#000000" fill-opacity="0.85"/>
<path d="M95.7773 7.98273V15.9641H103.759V7.98273H95.7773Z" fill="#000000" fill-opacity="0.85"/>
<path d="M95.7773 4.93039e-05V7.98267H103.759V4.93039e-05H95.7773Z" fill="#000000" fill-opacity="0.85"/>
<path d="M103.759 23.9454V31.9227H111.74V23.9454H103.759Z" fill="#000000" fill-opacity="0.85"/>
<path d="M103.759 15.9641V23.9454H111.74V15.9641H103.759Z" fill="#000000" fill-opacity="0.85"/>
<path d="M111.74 15.9641V23.9454H119.723V15.9641H111.74Z" fill="#000000" fill-opacity="0.85"/>
<path d="M119.723 7.98273V15.9641H127.704V7.98273H119.723Z" fill="#000000" fill-opacity="0.85"/>
<path d="M127.704 15.9641V23.9454H135.687V15.9641H127.704Z" fill="#000000" fill-opacity="0.85"/>
<path d="M103.759 7.98273V15.9641H111.74V7.98273H103.759Z" fill="#000000" fill-opacity="0.85"/>
</svg>
