<svg width="208" height="48" viewBox="0 0 208 48" fill="none" xmlns="http://www.w3.org/2000/svg">
<path d="M191.554 7.72176e-06V7.98132H183.572V7.72176e-06H191.554Z" fill="#000000" fill-opacity="0.85"/>
<path d="M199.534 7.72176e-06V7.98132H191.551V7.72176e-06H199.534Z" fill="#000000" fill-opacity="0.85"/>
<path d="M207.512 7.72176e-06V7.98132H199.531V7.72176e-06H207.512Z" fill="#000000" fill-opacity="0.85"/>
<path d="M183.572 7.72176e-06V7.98132H175.59V7.72176e-06H183.572Z" fill="#000000" fill-opacity="0.85"/>
<path d="M175.59 7.72176e-06V7.98132H167.608V7.72176e-06H175.59Z" fill="#000000" fill-opacity="0.85"/>
<path d="M167.608 7.72176e-06V7.98132H159.627V7.72176e-06H167.608Z" fill="#000000" fill-opacity="0.85"/>
<path d="M159.627 7.72176e-06V7.98132H151.644V7.72176e-06H159.627Z" fill="#000000" fill-opacity="0.85"/>
<path d="M151.644 7.72176e-06V7.98132H143.663V7.72176e-06H151.644Z" fill="#000000" fill-opacity="0.85"/>
<path d="M143.663 7.72176e-06V7.98132H135.682V7.72176e-06H143.663Z" fill="#000000" fill-opacity="0.85"/>
<path d="M135.682 7.72176e-06V7.98132H127.699V7.72176e-06H135.682Z" fill="#000000" fill-opacity="0.85"/>
<path d="M127.699 7.72176e-06V7.98132H119.718V7.72176e-06H127.699Z" fill="#000000" fill-opacity="0.85"/>
<path d="M119.718 7.72176e-06V7.98132H111.735V7.72176e-06H119.718Z" fill="#000000" fill-opacity="0.85"/>
<path d="M111.735 7.72176e-06V7.98132H103.759V7.72176e-06H111.735Z" fill="#000000" fill-opacity="0.85"/>
<path d="M103.759 7.72176e-06V7.98132H95.7764V7.72176e-06H103.759Z" fill="#000000" fill-opacity="0.85"/>
<path d="M95.7763 15.9587V23.9401H87.7949V15.9587H95.7763Z" fill="#000000" fill-opacity="0.85"/>
<path d="M95.7763 7.9814V15.9587H87.7949V7.9814H95.7763Z" fill="#000000" fill-opacity="0.85"/>
<path d="M95.7763 7.72176e-06V7.98132H87.7949V7.72176e-06H95.7763Z" fill="#000000" fill-opacity="0.85"/>
<path d="M87.7948 23.9401V31.9227H79.8135V23.9401H87.7948Z" fill="#000000" fill-opacity="0.85"/>
<path d="M87.7948 15.9587V23.9401H79.8135V15.9587H87.7948Z" fill="#000000" fill-opacity="0.85"/>
<path d="M87.7948 7.9814V15.9587H79.8135V7.9814H87.7948Z" fill="#000000" fill-opacity="0.85"/>
<path d="M87.7948 7.72176e-06V7.98132H79.8135V7.72176e-06H87.7948Z" fill="#000000" fill-opacity="0.85"/>
<path d="M79.8137 31.9227V39.9041H71.8311V31.9227H79.8137Z" fill="#000000" fill-opacity="0.85"/>
<path d="M79.8137 23.9401V31.9227H71.8311V23.9401H79.8137Z" fill="#000000" fill-opacity="0.85"/>
<path d="M79.8137 15.9587V23.9401H71.8311V15.9587H79.8137Z" fill="#000000" fill-opacity="0.85"/>
<path d="M79.8137 7.9814V15.9587H71.8311V7.9814H79.8137Z" fill="#000000" fill-opacity="0.85"/>
<path d="M79.8137 7.72176e-06V7.98132H71.8311V7.72176e-06H79.8137Z" fill="#000000" fill-opacity="0.85"/>
<path d="M71.8309 31.9227V39.9041H63.8496V31.9227H71.8309Z" fill="#000000" fill-opacity="0.85"/>
<path d="M71.8309 23.9401V31.9227H63.8496V23.9401H71.8309Z" fill="#000000" fill-opacity="0.85"/>
<path d="M71.8309 15.9587V23.9401H63.8496V15.9587H71.8309Z" fill="#000000" fill-opacity="0.85"/>
<path d="M71.8309 7.9814V15.9587H63.8496V7.9814H71.8309Z" fill="#000000" fill-opacity="0.85"/>
<path d="M71.8309 7.72176e-06V7.98132H63.8496V7.72176e-06H71.8309Z" fill="#000000" fill-opacity="0.85"/>
<path d="M63.8495 39.904V47.8854H55.8682V39.904H63.8495Z" fill="#000000" fill-opacity="0.85"/>
<path d="M63.8495 31.9227V39.9041H55.8682V31.9227H63.8495Z" fill="#000000" fill-opacity="0.85"/>
<path d="M63.8495 23.9401V31.9227H55.8682V23.9401H63.8495Z" fill="#000000" fill-opacity="0.85"/>
<path d="M63.8495 15.9587V23.9401H55.8682V15.9587H63.8495Z" fill="#000000" fill-opacity="0.85"/>
<path d="M63.8495 7.9814V15.9587H55.8682V7.9814H63.8495Z" fill="#000000" fill-opacity="0.85"/>
<path d="M63.8495 7.72176e-06V7.98132H55.8682V7.72176e-06H63.8495Z" fill="#000000" fill-opacity="0.85"/>
<path d="M55.8682 39.904V47.8854H47.8855V39.904H55.8682Z" fill="#000000" fill-opacity="0.85"/>
<path d="M55.8682 31.9227V39.9041H47.8855V31.9227H55.8682Z" fill="#000000" fill-opacity="0.85"/>
<path d="M55.8682 23.9401V31.9227H47.8855V23.9401H55.8682Z" fill="#000000" fill-opacity="0.85"/>
<path d="M55.8682 15.9587V23.9401H47.8855V15.9587H55.8682Z" fill="#000000" fill-opacity="0.85"/>
<path d="M55.8682 7.9814V15.9587H47.8855V7.9814H55.8682Z" fill="#000000" fill-opacity="0.85"/>
<path d="M55.8682 7.72176e-06V7.98132H47.8855V7.72176e-06H55.8682Z" fill="#000000" fill-opacity="0.85"/>
<path d="M47.8856 39.904V47.8854H39.9043V39.904H47.8856Z" fill="#000000" fill-opacity="0.85"/>
<path d="M47.8856 31.9227V39.9041H39.9043V31.9227H47.8856Z" fill="#000000" fill-opacity="0.85"/>
<path d="M47.8856 23.9401V31.9227H39.9043V23.9401H47.8856Z" fill="#000000" fill-opacity="0.85"/>
<path d="M47.8856 15.9587V23.9401H39.9043V15.9587H47.8856Z" fill="#000000" fill-opacity="0.85"/>
<path d="M47.8856 7.9814V15.9587H39.9043V7.9814H47.8856Z" fill="#000000" fill-opacity="0.85"/>
<path d="M47.8856 7.72176e-06V7.98132H39.9043V7.72176e-06H47.8856Z" fill="#000000" fill-opacity="0.85"/>
<path d="M39.9043 39.904V47.8854H31.9216V39.904H39.9043Z" fill="#000000" fill-opacity="0.85"/>
<path d="M39.9043 31.9227V39.9041H31.9216V31.9227H39.9043Z" fill="white"/>
<path d="M39.9043 23.9401V31.9227H31.9216V23.9401H39.9043Z" fill="#000000" fill-opacity="0.85"/>
<path d="M39.9043 15.9587V23.9401H31.9216V15.9587H39.9043Z" fill="white"/>
<path d="M39.9043 7.9814V15.9587H31.9216V7.9814H39.9043Z" fill="#000000" fill-opacity="0.85"/>
<path d="M39.9043 7.72176e-06V7.98132H31.9216V7.72176e-06H39.9043Z" fill="#000000" fill-opacity="0.85"/>
<path d="M31.9216 31.9227V39.9041H23.9453V31.9227H31.9216Z" fill="#000000" fill-opacity="0.85"/>
<path d="M31.9216 23.9401V31.9227H23.9453V23.9401H31.9216Z" fill="white"/>
<path d="M31.9216 15.9587V23.9401H23.9453V15.9587H31.9216Z" fill="#000000" fill-opacity="0.85"/>
<path d="M31.9216 7.9814V15.9587H23.9453V7.9814H31.9216Z" fill="white"/>
<path d="M31.9216 7.72176e-06V7.98132H23.9453V7.72176e-06H31.9216Z" fill="#000000" fill-opacity="0.85"/>
<path d="M23.9452 31.9227V39.9041H15.9634V31.9227H23.9452Z" fill="#000000" fill-opacity="0.85"/>
<path d="M23.9452 23.9401V31.9227H15.9634V23.9401H23.9452Z" fill="#000000" fill-opacity="0.85"/>
<path d="M23.9452 15.9587V23.9401H15.9634V15.9587H23.9452Z" fill="white"/>
<path d="M23.9452 7.9814V15.9587H15.9634V7.9814H23.9452Z" fill="#000000" fill-opacity="0.85"/>
<path d="M23.9452 7.72176e-06V7.98132H15.9634V7.72176e-06H23.9452Z" fill="#000000" fill-opacity="0.85"/>
<path d="M15.9634 23.9401V31.9227H7.98169V23.9401H15.9634Z" fill="#000000" fill-opacity="0.85"/>
<path d="M15.9634 15.9587V23.9401H7.98169V15.9587H15.9634Z" fill="#000000" fill-opacity="0.85"/>
<path d="M15.9634 7.9814V15.9587H7.98169V7.9814H15.9634Z" fill="white"/>
<path d="M15.9634 7.72176e-06V7.98132H7.98169V7.72176e-06H15.9634Z" fill="#000000" fill-opacity="0.85"/>
<path d="M7.98173 15.9587V23.9401H0V15.9587H7.98173Z" fill="#000000" fill-opacity="0.85"/>
<path d="M7.98173 7.9814V15.9587H0V7.9814H7.98173Z" fill="#000000" fill-opacity="0.85"/>
<path d="M207.515 15.9587V23.9401H199.534V15.9587H207.515Z" fill="#000000" fill-opacity="0.85"/>
<path d="M207.515 7.9814V15.9587H199.534V7.9814H207.515Z" fill="#000000" fill-opacity="0.85"/>
<path d="M199.534 23.9401V31.9227H191.551V23.9401H199.534Z" fill="#000000" fill-opacity="0.85"/>
<path d="M199.534 15.9587V23.9401H191.551V15.9587H199.534Z" fill="#000000" fill-opacity="0.85"/>
<path d="M199.534 7.9814V15.9587H191.551V7.9814H199.534Z" fill="#000000" fill-opacity="0.85"/>
<path d="M191.551 31.9227V39.9041H183.57V31.9227H191.551Z" fill="#000000" fill-opacity="0.85"/>
<path d="M191.551 23.9401V31.9227H183.57V23.9401H191.551Z" fill="#000000" fill-opacity="0.85"/>
<path d="M191.551 15.9587V23.9401H183.57V15.9587H191.551Z" fill="#000000" fill-opacity="0.85"/>
<path d="M191.551 7.9814V15.9587H183.57V7.9814H191.551Z" fill="#000000" fill-opacity="0.85"/>
<path d="M183.57 31.9227V39.9041H175.587V31.9227H183.57Z" fill="#000000" fill-opacity="0.85"/>
<path d="M183.57 23.9401V31.9227H175.587V23.9401H183.57Z" fill="#000000" fill-opacity="0.85"/>
<path d="M183.57 15.9587V23.9401H175.587V15.9587H183.57Z" fill="#000000" fill-opacity="0.85"/>
<path d="M183.57 7.9814V15.9587H175.587V7.9814H183.57Z" fill="#000000" fill-opacity="0.85"/>
<path d="M175.587 39.904V47.8854H167.606V39.904H175.587Z" fill="#000000" fill-opacity="0.85"/>
<path d="M175.587 31.9227V39.9041H167.606V31.9227H175.587Z" fill="#000000" fill-opacity="0.85"/>
<path d="M175.587 23.9401V31.9227H167.606V23.9401H175.587Z" fill="#000000" fill-opacity="0.85"/>
<path d="M175.587 15.9587V23.9401H167.606V15.9587H175.587Z" fill="#000000" fill-opacity="0.85"/>
<path d="M175.587 7.9814V15.9587H167.606V7.9814H175.587Z" fill="#000000" fill-opacity="0.85"/>
<path d="M167.606 39.904V47.8854H159.624V39.904H167.606Z" fill="#000000" fill-opacity="0.85"/>
<path d="M167.606 31.9227V39.9041H159.624V31.9227H167.606Z" fill="#000000" fill-opacity="0.85"/>
<path d="M167.606 23.9401V31.9227H159.624V23.9401H167.606Z" fill="#000000" fill-opacity="0.85"/>
<path d="M167.606 15.9587V23.9401H159.624V15.9587H167.606Z" fill="#000000" fill-opacity="0.85"/>
<path d="M167.606 7.9814V15.9587H159.624V7.9814H167.606Z" fill="#000000" fill-opacity="0.85"/>
<path d="M159.624 39.904V47.8854H151.642V39.904H159.624Z" fill="#000000" fill-opacity="0.85"/>
<path d="M159.624 31.9227V39.9041H151.642V31.9227H159.624Z" fill="#000000" fill-opacity="0.85"/>
<path d="M159.624 23.9401V31.9227H151.642V23.9401H159.624Z" fill="#000000" fill-opacity="0.85"/>
<path d="M159.624 15.9587V23.9401H151.642V15.9587H159.624Z" fill="#000000" fill-opacity="0.85"/>
<path d="M159.624 7.9814V15.9587H151.642V7.9814H159.624Z" fill="#000000" fill-opacity="0.85"/>
<path d="M151.641 39.904V47.8854H143.66V39.904H151.641Z" fill="#000000" fill-opacity="0.85"/>
<path d="M151.641 31.9227V39.9041H143.66V31.9227H151.641Z" fill="white"/>
<path d="M151.641 23.9401V31.9227H143.66V23.9401H151.641Z" fill="#000000" fill-opacity="0.85"/>
<path d="M151.641 15.9587V23.9401H143.66V15.9587H151.641Z" fill="white"/>
<path d="M151.641 7.9814V15.9587H143.66V7.9814H151.641Z" fill="#000000" fill-opacity="0.85"/>
<path d="M143.66 31.9227V39.9041H135.683V31.9227H143.66Z" fill="#000000" fill-opacity="0.85"/>
<path d="M143.66 23.9401V31.9227H135.683V23.9401H143.66Z" fill="white"/>
<path d="M143.66 15.9587V23.9401H135.683V15.9587H143.66Z" fill="#000000" fill-opacity="0.85"/>
<path d="M143.66 7.9814V15.9587H135.683V7.9814H143.66Z" fill="white"/>
<path d="M135.683 31.9227V39.9041H127.702V31.9227H135.683Z" fill="#000000" fill-opacity="0.85"/>
<path d="M135.683 23.9401V31.9227H127.702V23.9401H135.683Z" fill="#000000" fill-opacity="0.85"/>
<path d="M135.683 15.9587V23.9401H127.702V15.9587H135.683Z" fill="white"/>
<path d="M135.683 7.9814V15.9587H127.702V7.9814H135.683Z" fill="#000000" fill-opacity="0.85"/>
<path d="M127.702 23.9401V31.9227H119.72V23.9401H127.702Z" fill="#000000" fill-opacity="0.85"/>
<path d="M127.702 15.9587V23.9401H119.72V15.9587H127.702Z" fill="#000000" fill-opacity="0.85"/>
<path d="M127.702 7.9814V15.9587H119.72V7.9814H127.702Z" fill="white"/>
<path d="M119.72 15.9587V23.9401H111.738V15.9587H119.72Z" fill="#000000" fill-opacity="0.85"/>
<path d="M119.72 7.9814V15.9587H111.738V7.9814H119.72Z" fill="#000000" fill-opacity="0.85"/>
<path d="M7.98173 7.72176e-06V7.98132H0V7.72176e-06H7.98173Z" fill="#000000" fill-opacity="0.85"/>
</svg>
